<?xml version="1.0" standalone="no"?>
<!DOCTYPE svg PUBLIC "-//W3C//DTD SVG 20010904//EN"
 "http://www.w3.org/TR/2001/REC-SVG-20010904/DTD/svg10.dtd">
<svg version="1.0" xmlns="http://www.w3.org/2000/svg"
 width="2000.000000pt" height="2000.000000pt" viewBox="0 0 2000.000000 2000.000000"
 preserveAspectRatio="xMidYMid meet">

<g transform="translate(0.000000,2000.000000) scale(0.100000,-0.100000)"
fill="#000000" stroke="none">
<path d="M3067 19773 c-81 -124 -146 -227 -144 -230 3 -2 128 32 278 76 150
45 279 81 286 81 10 0 13 -66 13 -316 0 -309 0 -316 18 -293 33 42 604 883
609 897 4 9 -91 12 -453 12 l-459 -1 -148 -226z"/>
<path d="M7886 19883 c-4 -65 -9 -147 -11 -183 -2 -36 -6 -110 -7 -165 l-3
-99 530 -77 c292 -43 557 -81 590 -84 l60 -7 -125 128 c-69 71 -147 152 -173
180 l-49 51 151 124 c83 67 149 124 147 127 -3 2 -190 30 -418 63 -343 49
-436 59 -549 59 l-137 0 -6 -117z"/>
<path d="M11407 19940 c-219 -32 -400 -60 -402 -62 -3 -2 63 -60 146 -127
l151 -124 -49 -51 c-26 -28 -104 -108 -173 -178 -83 -85 -119 -128 -106 -128
16 0 201 26 976 139 l185 27 -3 99 c-1 55 -5 129 -7 165 -2 36 -7 118 -11 183
l-6 117 -152 -1 c-127 -1 -215 -11 -549 -59z"/>
<path d="M15790 19994 c0 -4 138 -243 307 -532 261 -446 308 -521 315 -501 4
13 28 146 54 294 25 149 47 271 49 273 2 2 117 -52 425 -200 74 -36 137 -64
138 -62 2 1 -57 110 -131 241 -74 131 -166 294 -205 363 l-69 125 -442 3
c-242 1 -441 -1 -441 -4z"/>
<path d="M6167 19788 l-118 -31 123 -82 c68 -45 135 -89 149 -98 l26 -17 -18
107 c-23 135 -28 153 -37 152 -4 0 -60 -15 -125 -31z"/>
<path d="M13027 19787 c-54 -5 -96 -14 -95 -19 2 -5 59 -58 128 -119 l125
-109 3 67 c2 38 0 96 -3 131 -8 71 9 66 -158 49z"/>
<path d="M13849 19692 l-116 -47 57 -114 c31 -63 59 -111 62 -105 7 10 128
306 128 311 0 6 -17 0 -131 -45z"/>
<path d="M9975 19703 c-44 -2 -86 -6 -94 -9 -16 -5 34 -60 162 -176 l77 -70 0
131 0 131 -32 -2 c-18 -1 -69 -3 -113 -5z"/>
<path d="M17564 19458 c3 -13 15 -90 26 -173 12 -82 22 -151 24 -152 1 -1 20
21 43 50 22 29 59 75 81 103 l41 50 -87 60 c-47 32 -96 65 -109 72 -22 12 -23
11 -19 -10z"/>
<path d="M18400 19363 c0 -16 42 -309 46 -322 2 -8 29 18 67 65 34 44 70 88
79 98 10 10 15 23 12 27 -6 10 -190 139 -198 139 -3 0 -6 -3 -6 -7z"/>
<path d="M438 19302 c-59 -15 -109 -29 -112 -33 -3 -3 60 -49 141 -103 123
-83 145 -95 140 -75 -3 13 -13 72 -23 132 -10 62 -22 107 -28 106 -6 0 -59
-13 -118 -27z"/>
<path d="M1695 19150 c-79 -32 -119 -53 -117 -62 2 -7 26 -60 54 -118 41 -86
52 -101 58 -85 4 11 35 86 68 168 33 81 60 147 59 146 -1 0 -56 -22 -122 -49z"/>
<path d="M6395 19108 c-42 -115 -392 -1168 -389 -1168 3 0 118 68 255 150 137
83 253 150 257 150 5 0 28 -71 51 -157 59 -217 121 -436 124 -440 2 -1 27 66
55 150 29 83 75 215 103 292 128 356 289 818 285 822 -3 3 -411 122 -481 140
-21 6 -208 60 -238 69 -9 3 -19 0 -22 -8z"/>
<path d="M2407 19028 l-118 -30 143 -97 c79 -53 145 -93 146 -88 4 7 -25 195
-34 230 -3 9 -8 17 -12 16 -4 0 -60 -15 -125 -31z"/>
<path d="M13495 18975 c-55 -18 -215 -70 -355 -115 -140 -45 -258 -85 -262
-89 -4 -3 46 -204 112 -446 66 -242 138 -510 161 -595 23 -85 44 -157 45 -159
2 -2 24 38 48 90 60 129 120 258 168 362 23 48 44 87 47 87 3 0 110 -90 236
-200 127 -110 232 -200 235 -200 3 0 -45 199 -107 443 -62 243 -137 535 -165
650 -29 114 -55 207 -58 206 -3 0 -50 -16 -105 -34z"/>
<path d="M19171 18798 c0 -13 10 -92 22 -177 l22 -153 70 88 c39 48 76 95 82
105 11 15 1 25 -92 89 -95 64 -105 69 -104 48z"/>
<path d="M3252 18588 c-61 -73 -110 -133 -109 -134 5 -4 249 15 254 19 5 6
-24 237 -31 244 -2 2 -53 -56 -114 -129z"/>
<path d="M9975 18512 l-310 -15 3 -566 c1 -311 3 -592 5 -623 l2 -57 189 225
c104 123 192 224 196 224 8 0 26 -26 221 -315 l134 -200 7 340 c3 187 8 490
10 673 l4 332 -75 -2 c-42 0 -215 -8 -386 -16z"/>
<path d="M1483 18377 c-51 -5 -93 -12 -92 -16 0 -5 115 -109 220 -199 l39 -34
0 131 0 131 -37 -2 c-21 0 -80 -5 -130 -11z"/>
<path d="M16285 18270 c-3 -5 -16 -37 -29 -72 -13 -35 -33 -86 -44 -114 l-21
-51 132 52 c73 28 150 58 172 65 l39 13 -54 25 c-30 14 -85 40 -122 59 -37 18
-70 29 -73 23z"/>
<path d="M17225 18206 c-49 -12 -103 -26 -119 -30 -27 -7 -22 -12 115 -105 79
-53 146 -96 148 -95 3 2 -23 176 -35 232 -2 12 -8 22 -12 21 -4 -1 -47 -11
-97 -23z"/>
<path d="M2313 18116 c-46 -18 -86 -35 -89 -39 -4 -4 -15 -7 -25 -7 -10 0 -21
-5 -24 -11 -7 -11 85 -228 96 -229 8 0 133 309 128 314 -2 2 -41 -11 -86 -28z"/>
<path d="M12615 18110 c2 -19 11 -98 20 -175 8 -77 18 -154 20 -171 l5 -32 56
21 c31 11 58 26 60 32 3 6 -34 89 -81 185 -55 115 -83 163 -80 140z"/>
<path d="M8034 17883 c-114 -351 -123 -382 -115 -387 11 -7 429 -176 435 -176
3 0 -53 97 -124 215 l-129 215 174 88 c160 79 175 89 175 113 0 24 -12 31
-152 92 -84 36 -160 69 -170 72 -14 5 -28 -31 -94 -232z"/>
<path d="M11688 18037 l-118 -51 0 -36 0 -35 154 -77 155 -77 -6 32 c-2 18
-12 90 -21 162 -13 99 -21 130 -32 132 -8 1 -68 -21 -132 -50z"/>
<path d="M3702 18021 c-62 -16 -114 -30 -116 -32 -6 -6 274 -192 280 -187 3 3
-2 48 -11 99 -22 133 -26 149 -33 148 -4 0 -58 -13 -120 -28z"/>
<path d="M19425 18026 c-49 -12 -103 -26 -119 -30 -27 -7 -22 -11 110 -100 77
-51 144 -95 150 -99 6 -4 3 41 -10 120 -12 70 -26 127 -31 129 -6 1 -50 -8
-100 -20z"/>
<path d="M4506 17975 c-59 -24 -110 -46 -113 -48 -2 -3 21 -56 52 -118 39 -78
59 -108 65 -98 11 21 120 295 120 303 0 9 -7 7 -124 -39z"/>
<path d="M15235 17958 c95 -115 199 -219 206 -206 4 7 10 64 14 126 l8 112
-128 0 -127 0 27 -32z"/>
<path d="M7595 17932 c-39 -26 -120 -78 -180 -117 l-109 -69 35 -14 c180 -76
465 -190 467 -187 2 2 -12 54 -31 117 -20 62 -49 159 -67 216 -17 56 -34 102
-38 101 -4 0 -39 -22 -77 -47z"/>
<path d="M5131 17885 l-125 -30 145 -97 c79 -54 145 -93 147 -89 3 9 -35 242
-40 245 -2 1 -59 -12 -127 -29z"/>
<path d="M12243 17773 c-17 -26 -65 -101 -106 -165 -42 -65 -74 -118 -72 -118
7 0 326 130 348 142 21 11 20 12 -79 122 l-60 67 -31 -48z"/>
<path d="M710 17789 c-41 -11 -92 -25 -114 -30 l-39 -10 143 -95 c78 -53 144
-93 146 -91 4 4 -15 135 -32 220 -6 31 -6 31 -104 6z"/>
<path d="M18501 17774 c8 -11 55 -71 104 -134 49 -63 91 -119 95 -123 4 -4 15
43 24 105 9 62 19 120 22 129 5 19 -18 23 -171 35 -87 6 -90 6 -74 -12z"/>
<path d="M11758 17515 c-64 -107 -115 -195 -112 -195 10 0 259 102 267 110 8
7 -23 280 -33 280 -3 0 -58 -88 -122 -195z"/>
<path d="M7089 17629 c-30 -34 -62 -72 -72 -83 -10 -12 -35 -39 -55 -61 -20
-22 -71 -78 -112 -125 -41 -47 -92 -103 -112 -125 -21 -22 -34 -44 -30 -51 4
-7 79 -86 167 -176 88 -90 263 -270 389 -401 126 -130 230 -236 232 -235 1 2
-11 113 -27 247 -16 134 -28 246 -25 248 2 2 102 9 222 14 120 5 219 11 220
12 2 2 -317 350 -559 610 -55 59 -109 119 -119 133 -11 13 -26 24 -34 24 -8 0
-13 5 -11 11 6 31 -25 13 -74 -42z"/>
<path d="M12762 17601 l-82 -89 10 -74 c5 -40 9 -77 9 -83 0 -5 -19 11 -43 37
l-43 48 -250 -273 c-138 -149 -250 -273 -249 -274 1 -1 100 -7 220 -12 120 -5
220 -12 223 -14 3 -4 -37 -367 -52 -467 -6 -39 -32 -64 534 519 l264 272 -30
32 c-16 18 -46 50 -65 72 -40 46 -217 244 -233 261 -6 6 -35 39 -65 73 -29 33
-56 61 -60 61 -3 0 -43 -40 -88 -89z"/>
<path d="M13870 17515 c0 -3 53 -65 118 -137 l117 -130 10 128 c6 71 10 130
10 130 0 5 -255 14 -255 9z"/>
<path d="M5930 17369 c-58 -23 -113 -44 -122 -47 -16 -6 -11 -21 40 -125 l57
-118 67 166 c37 91 66 165 65 165 -1 -1 -49 -19 -107 -41z"/>
<path d="M3941 17231 l-83 -6 131 -123 131 -124 0 131 0 131 -47 -2 c-27 -1
-86 -4 -132 -7z"/>
<path d="M16276 17198 c-38 -90 -78 -200 -74 -203 2 -2 77 24 166 58 l162 62
-67 32 c-38 18 -92 44 -121 58 l-53 25 -13 -32z"/>
<path d="M18696 17191 c-82 -20 -105 -29 -95 -37 43 -34 271 -185 274 -182 2
2 -5 58 -15 123 -11 66 -20 121 -20 123 0 6 -43 -2 -144 -27z"/>
<path d="M4961 16909 c-62 -15 -115 -30 -117 -32 -2 -2 62 -47 141 -100 80
-54 145 -94 145 -90 0 4 -7 49 -15 98 -8 50 -18 105 -21 123 -2 17 -8 32 -12
31 -4 -1 -58 -14 -121 -30z"/>
<path d="M3268 16812 c-65 -25 -118 -48 -118 -52 0 -21 108 -229 113 -218 38
91 126 312 124 313 -1 2 -55 -18 -119 -43z"/>
<path d="M10664 16711 c59 -65 113 -124 120 -130 15 -12 18 5 32 172 l6 77
-132 0 -131 0 105 -119z"/>
<path d="M15468 16735 c-48 -12 -95 -26 -105 -30 -10 -5 -25 -7 -33 -6 -8 1
-1 -6 15 -16 17 -9 34 -17 38 -18 4 0 11 -5 15 -11 6 -9 168 -123 207 -146 6
-4 3 45 -9 123 -11 73 -25 129 -31 128 -5 0 -49 -11 -97 -24z m62 -5 c0 -5 -7
-10 -16 -10 -8 0 -12 5 -9 10 3 6 10 10 16 10 5 0 9 -4 9 -10z"/>
<path d="M9343 16609 c-68 -61 -123 -114 -123 -119 0 -8 238 -25 246 -17 3 2
3 59 2 126 l-3 122 -122 -112z"/>
<path d="M1698 16591 c-65 -25 -118 -49 -118 -53 0 -4 23 -57 52 -118 48 -104
53 -110 64 -88 19 36 125 300 122 303 -2 1 -56 -19 -120 -44z"/>
<path d="M8150 16588 c-58 -23 -107 -43 -109 -44 -2 -2 20 -55 49 -119 30 -63
57 -112 61 -108 4 5 28 60 53 123 24 63 52 132 61 153 19 47 18 47 -115 -5z"/>
<path d="M11400 16612 c0 -9 -14 -64 -30 -121 -16 -58 -28 -107 -26 -109 3 -2
72 32 155 75 82 43 147 81 143 84 -4 4 -60 25 -124 47 -102 36 -118 39 -118
24z"/>
<path d="M5495 16253 c-104 -57 -233 -127 -285 -155 -52 -28 -96 -52 -98 -53
-1 -1 129 -213 289 -471 161 -258 306 -493 323 -521 17 -29 33 -53 36 -53 3 0
15 111 27 246 12 135 23 247 25 249 3 3 371 -59 416 -70 12 -3 22 -3 22 1 0 3
-93 162 -206 352 -326 548 -347 582 -353 581 -3 -1 -91 -48 -196 -106z"/>
<path d="M14284 16327 c-12 -17 -115 -189 -229 -382 -114 -192 -230 -387 -258
-433 -27 -45 -48 -84 -46 -86 2 -2 102 13 221 34 l216 37 6 -31 c2 -17 13
-129 22 -248 10 -120 20 -218 23 -218 3 1 44 63 90 138 85 139 422 682 513
826 27 43 48 79 46 81 -2 1 -68 37 -148 80 -279 151 -434 235 -435 235 0 0
-10 -15 -21 -33z"/>
<path d="M4018 16326 c10 -14 63 -74 118 -135 l99 -110 7 77 c4 42 9 103 11
135 l5 57 -130 0 -129 0 19 -24z"/>
<path d="M17667 16327 c4 -8 55 -66 113 -130 121 -134 113 -137 125 36 l7 107
-127 0 c-102 0 -124 -2 -118 -13z"/>
<path d="M18792 16331 c2 -5 53 -64 113 -132 l110 -122 6 54 c4 30 10 89 13
132 l7 77 -126 0 c-73 0 -125 -4 -123 -9z"/>
<path d="M10079 16178 l-85 -93 55 -45 c30 -25 76 -61 101 -81 l45 -37 -9 174
c-5 96 -12 174 -15 174 -4 0 -45 -42 -92 -92z"/>
<path d="M2108 16201 c-60 -14 -108 -29 -108 -32 0 -5 80 -61 261 -182 l26
-17 -13 82 c-8 46 -17 104 -20 131 -8 55 0 54 -146 18z"/>
<path d="M4765 15888 c-49 -27 -133 -72 -185 -99 -52 -28 -145 -78 -207 -112
l-112 -61 13 -30 c8 -17 101 -227 209 -466 107 -239 205 -459 217 -487 12 -29
25 -53 29 -53 4 0 31 107 61 238 30 130 55 239 56 240 1 2 98 -26 214 -63 116
-37 213 -65 214 -63 3 2 -313 760 -400 961 l-19 44 -90 -49z"/>
<path d="M15036 15681 c-58 -141 -153 -366 -210 -501 -57 -135 -102 -247 -100
-248 1 -2 98 26 214 63 116 37 213 65 214 63 1 -1 26 -110 56 -240 30 -131 57
-238 60 -238 3 0 108 231 234 513 126 281 231 515 232 518 2 3 -97 59 -219
125 -121 65 -256 138 -298 160 l-76 41 -107 -256z"/>
<path d="M0 15398 c0 -276 2 -499 4 -497 1 2 72 139 156 304 84 165 181 355
216 422 l63 122 -42 14 c-134 47 -392 137 -394 137 -2 0 -3 -226 -3 -502z"/>
<path d="M19875 15859 c-60 -22 -156 -55 -212 -75 l-102 -36 63 -121 c35 -67
132 -257 216 -422 84 -165 155 -302 157 -304 1 -2 3 221 3 497 0 276 -3 502
-7 501 -5 0 -57 -18 -118 -40z"/>
<path d="M7808 15863 c-60 -15 -108 -29 -108 -33 0 -4 64 -50 143 -102 l143
-96 -21 127 c-15 92 -25 126 -35 128 -8 1 -63 -10 -122 -24z"/>
<path d="M12758 15691 c-60 -14 -107 -29 -105 -34 1 -4 63 -48 137 -97 107
-72 136 -87 138 -73 1 10 -6 65 -16 123 -13 76 -22 105 -32 106 -8 1 -63 -10
-122 -25z"/>
<path d="M7176 15260 c79 -88 120 -127 125 -118 3 7 10 63 14 124 l6 111 -77
6 c-42 4 -101 7 -131 7 l-54 0 117 -130z"/>
<path d="M1774 15342 l-252 -2 -6 -83 c-4 -45 -25 -307 -47 -581 -22 -275 -38
-506 -37 -513 2 -11 199 198 305 325 l23 27 77 -80 c43 -45 104 -109 137 -143
32 -35 60 -62 61 -60 2 2 15 156 30 343 15 187 35 435 44 550 10 116 17 211
17 211 -4 6 -143 9 -352 6z"/>
<path d="M2656 15324 c-153 -13 -280 -25 -283 -27 -5 -5 155 -1163 165 -1194
6 -18 19 0 76 104 38 69 69 132 69 139 0 8 3 12 5 9 3 -3 25 31 49 75 24 44
48 80 54 80 5 0 89 -53 186 -119 156 -103 178 -116 180 -97 1 11 -26 253 -60
536 l-62 515 -50 2 c-28 0 -175 -10 -329 -23z"/>
<path d="M16965 15338 c-4 -14 -125 -1035 -125 -1056 0 -7 81 42 180 108 99
66 184 120 189 120 5 0 53 -79 106 -175 53 -96 101 -175 106 -175 5 0 8 -3 8
-7 -3 -21 2 -33 13 -27 7 4 8 3 4 -4 -4 -7 -3 -19 2 -29 8 -14 11 -11 17 15 3
17 4 41 0 52 -3 11 -2 20 3 20 6 0 12 24 15 53 2 28 37 279 76 556 40 277 70
505 68 507 -4 4 -591 54 -635 54 -12 0 -24 -6 -27 -12z"/>
<path d="M17918 15342 c-45 -3 -47 -4 -43 -30 3 -15 16 -173 30 -352 43 -560
57 -725 60 -728 1 -2 29 25 61 59 168 178 208 219 214 217 3 -2 31 -30 60 -63
30 -34 91 -101 136 -150 45 -50 93 -103 107 -120 23 -26 26 -28 27 -10 0 23
-71 915 -85 1060 -2 28 -5 64 -5 82 l0 32 -257 3 c-142 2 -279 2 -305 0z"/>
<path d="M14197 14673 c-14 -38 -35 -92 -46 -120 l-21 -53 53 21 c28 12 99 39
157 61 57 22 109 42 114 45 8 5 -205 113 -224 113 -4 0 -19 -30 -33 -67z"/>
<path d="M5242 14701 l-83 -6 88 -85 c48 -47 107 -103 131 -125 l42 -39 0 132
0 132 -47 -2 c-27 -1 -85 -4 -131 -7z"/>
<path d="M2918 13987 c-60 -23 -108 -45 -108 -48 0 -19 105 -228 110 -222 4 5
28 60 53 123 25 63 53 132 61 153 20 47 20 47 -116 -6z"/>
<path d="M13550 13979 c-41 -11 -92 -25 -113 -30 l-38 -10 142 -95 c78 -52
143 -93 146 -90 5 4 -23 190 -33 229 -6 21 -9 20 -104 -4z"/>
<path d="M19386 13791 l-89 -89 84 -6 c46 -3 125 -7 176 -9 l91 -3 -21 27
c-53 65 -142 168 -147 168 -3 1 -45 -39 -94 -88z"/>
<path d="M5638 13860 c-54 -3 -100 -9 -103 -12 -3 -3 51 -58 120 -122 l125
-118 0 85 c0 46 3 105 6 131 8 53 27 48 -148 36z"/>
<path d="M3501 13821 l-63 -6 43 -39 c24 -21 83 -78 132 -125 l87 -86 0 133 0
132 -67 -2 c-38 -1 -97 -4 -132 -7z"/>
<path d="M18607 13699 l118 -130 7 73 c4 40 9 99 12 131 l6 57 -131 0 -130 0
118 -131z"/>
<path d="M7596 13708 c58 -68 199 -223 205 -226 12 -5 17 27 25 141 l6 107
-127 0 -128 0 19 -22z"/>
<path d="M14725 13258 c-15 -40 -36 -94 -46 -121 l-19 -47 33 13 c17 8 89 36
160 62 70 27 127 51 127 54 0 7 -205 111 -219 111 -4 0 -20 -33 -36 -72z"/>
<path d="M1568 13197 c-58 -23 -109 -45 -113 -48 -3 -4 18 -57 46 -118 29 -61
56 -108 60 -104 4 4 33 71 64 148 32 77 59 146 62 153 7 17 0 15 -119 -31z"/>
<path d="M9052 13181 c-62 -16 -115 -31 -118 -34 -3 -3 58 -48 137 -101 79
-52 144 -94 145 -93 4 5 -41 257 -46 256 -3 0 -56 -13 -118 -28z"/>
<path d="M17797 12912 c-26 -64 -45 -117 -43 -119 2 -2 76 24 165 59 186 71
185 55 15 134 l-91 42 -46 -116z"/>
<path d="M2675 12855 c-60 -25 -113 -46 -116 -47 -4 -2 19 -57 50 -122 l56
-119 44 109 c24 60 54 135 67 167 12 31 19 57 16 56 -4 0 -56 -20 -117 -44z"/>
<path d="M1988 12531 c-58 -14 -109 -29 -112 -32 -4 -3 60 -50 140 -103 123
-82 146 -94 141 -74 -3 12 -13 71 -23 131 -10 63 -21 107 -28 106 -6 -1 -59
-13 -118 -28z"/>
<path d="M13839 12395 l-127 -30 145 -98 c80 -54 147 -97 149 -95 3 4 -33 233
-39 248 -1 3 -59 -8 -128 -25z"/>
<path d="M9615 12094 c-1202 -62 -2564 -316 -3680 -689 -652 -217 -1095 -434
-1296 -634 -110 -110 -119 -134 -119 -313 0 -317 52 -848 111 -1137 10 -51 19
-101 19 -111 0 -12 -48 -46 -157 -110 -530 -312 -1206 -782 -1747 -1214 l-138
-111 133 -16 c74 -9 446 -53 827 -100 l692 -83 0 -27 c0 -22 -113 -1000 -180
-1558 -11 -91 -18 -166 -17 -167 1 -2 23 16 47 39 751 710 1455 1117 2265
1311 572 136 1007 249 1097 284 153 59 246 118 344 216 76 77 99 107 138 186
25 52 53 127 61 165 28 136 15 310 -36 465 -26 78 -95 229 -132 287 -15 24
-27 47 -27 52 0 20 477 97 810 130 581 59 1251 61 1940 6 473 -38 1190 -135
1517 -205 l50 -11 -34 -91 c-99 -263 -123 -527 -67 -718 44 -149 148 -291 279
-379 148 -99 297 -143 1330 -392 669 -162 1260 -470 1875 -979 113 -93 283
-243 369 -327 25 -23 46 -41 47 -40 2 1 -42 384 -97 851 -54 467 -99 860 -99
875 l0 27 648 78 c356 43 727 88 825 100 l177 21 -42 36 c-477 397 -1294 968
-1863 1301 -93 55 -174 104 -179 108 -4 5 5 55 22 112 44 148 78 285 104 423
19 104 23 151 22 350 0 263 -11 323 -83 470 -51 102 -110 168 -230 258 -660
495 -1892 936 -3157 1131 -655 101 -997 127 -1734 131 -311 1 -596 1 -635 -1z
m-2070 -801 c-6 -48 -41 -418 -130 -1348 -25 -264 -47 -485 -49 -491 -5 -14
-326 -98 -336 -87 -4 4 -31 96 -60 203 -28 107 -76 283 -105 390 -28 107 -72
271 -96 363 -36 138 -45 164 -51 140 -4 -15 -35 -266 -68 -558 -67 -581 -77
-665 -82 -670 -4 -4 -332 -93 -335 -91 -1 1 -221 822 -344 1284 -42 158 -77
272 -84 272 -22 0 -138 -115 -176 -172 -55 -85 -73 -164 -66 -290 5 -110 28
-193 68 -247 12 -17 20 -33 17 -37 -11 -10 -124 -17 -163 -10 -135 26 -197
240 -126 436 77 209 279 412 511 511 85 36 162 59 198 59 17 0 34 -49 132
-397 168 -597 279 -979 279 -968 7 122 104 1491 106 1493 9 10 290 81 296 74
6 -6 43 -141 214 -782 13 -52 53 -200 87 -327 34 -128 64 -233 67 -233 4 0 33
321 64 713 32 391 61 726 63 742 5 29 10 32 82 52 42 11 81 21 85 22 4 1 5
-20 2 -46z m1585 40 c0 -5 -43 -309 -95 -678 -52 -368 -95 -681 -95 -695 0
-42 26 -68 75 -76 37 -5 54 -2 98 20 28 14 69 42 90 61 37 35 37 36 37 113 0
167 40 346 105 478 98 195 242 301 440 323 156 18 284 -20 319 -93 16 -35 22
-113 8 -131 -4 -6 -38 -11 -77 -12 l-70 -1 3 53 c3 46 1 55 -19 69 -53 37
-135 11 -201 -63 -173 -194 -238 -697 -102 -786 90 -59 284 -7 412 110 48 44
48 45 60 133 18 137 48 238 103 351 42 87 64 117 127 180 116 114 246 171 394
171 203 0 294 -80 319 -280 6 -52 13 -98 15 -101 8 -14 76 -19 114 -9 22 6 66
26 97 44 32 19 68 37 81 41 19 5 22 3 22 -21 0 -36 11 -23 39 44 12 30 37 87
56 127 l33 73 168 -34 c92 -19 169 -36 171 -38 3 -2 -2 -17 -10 -33 -8 -15
-17 -38 -21 -50 l-7 -21 77 24 c202 64 329 29 411 -114 15 -26 27 -48 29 -50
1 -2 28 9 59 23 134 59 282 73 362 34 113 -55 186 -217 155 -342 -7 -24 -59
-152 -117 -285 -57 -133 -107 -258 -111 -279 -11 -73 59 -120 139 -94 31 11
36 16 42 59 4 26 22 88 41 137 107 276 283 481 479 555 184 70 448 -14 509
-162 29 -70 14 -174 -37 -254 -94 -149 -277 -229 -510 -222 l-117 3 -22 -55
c-28 -72 -30 -174 -4 -212 23 -36 92 -68 158 -75 56 -6 179 21 239 52 27 14
29 14 29 -3 0 -35 -64 -126 -111 -158 -91 -60 -210 -66 -378 -17 -141 40 -234
121 -263 228 l-11 41 -86 -46 c-80 -41 -92 -45 -161 -45 -148 0 -263 74 -290
185 -20 84 -1 154 121 438 83 192 110 268 111 302 2 81 -37 121 -120 122 -76
0 -92 -8 -92 -45 0 -18 -11 -61 -24 -97 -25 -71 -325 -770 -336 -783 -6 -7
-299 47 -331 61 -13 6 -3 36 66 197 45 105 123 286 173 403 78 179 92 221 92
265 -1 78 -40 117 -120 117 -90 0 -97 -8 -182 -206 -42 -98 -120 -278 -173
-399 -53 -121 -103 -238 -112 -260 -9 -22 -20 -45 -25 -51 -6 -8 -55 -1 -170
22 -89 19 -165 35 -169 36 -8 3 103 266 275 658 42 95 75 175 73 176 -2 2 -12
-4 -23 -14 -59 -55 -162 -109 -262 -139 l-60 -18 -7 -45 c-17 -111 -96 -305
-159 -390 -131 -175 -295 -255 -474 -231 -158 22 -254 99 -283 226 l-12 55
-56 -55 c-149 -146 -300 -204 -506 -193 -138 7 -211 54 -262 164 -9 22 -19 41
-20 43 -1 2 -44 -36 -96 -85 -123 -118 -195 -157 -291 -158 -92 0 -156 18
-204 59 -34 30 -48 54 -78 133 -9 21 -13 18 -69 -48 -68 -81 -190 -168 -281
-202 -86 -31 -250 -32 -316 -1 -148 68 -217 218 -218 473 0 357 132 626 350
711 78 30 243 38 305 15 63 -25 94 -53 121 -110 47 -102 27 -265 -47 -371 -68
-99 -196 -196 -324 -246 l-70 -28 2 -58 c2 -32 10 -77 19 -100 38 -104 161
-141 274 -83 85 43 224 201 260 295 5 13 46 284 91 602 45 318 82 579 83 579
2 3 330 72 344 73 6 1 12 -2 12 -6z m5549 -942 c84 -33 155 -62 158 -64 2 -3
-92 -133 -209 -290 -117 -157 -269 -361 -338 -453 -69 -92 -129 -174 -135
-181 -8 -11 -27 -6 -100 22 -49 19 -92 39 -96 43 -4 4 10 36 30 72 21 36 145
252 275 480 131 228 240 418 243 423 7 11 11 10 172 -52z m-742 -1092 c116
-44 151 -214 64 -313 -56 -63 -186 -75 -255 -23 -91 70 -104 221 -25 294 56
51 146 69 216 42z"/>
<path d="M10711 10688 c-76 -37 -160 -172 -215 -345 -58 -178 -75 -339 -43
-399 30 -57 132 -83 196 -50 77 41 161 197 200 374 8 37 7 42 -9 42 -9 0 -29
12 -44 26 -21 22 -26 36 -26 76 0 63 22 110 73 153 36 31 39 37 33 69 -14 72
-83 95 -165 54z"/>
<path d="M8195 10627 c-29 -31 -52 -70 -73 -124 -29 -75 -72 -266 -72 -320 0
-22 3 -24 26 -19 100 25 198 107 246 204 30 60 33 75 33 154 0 106 -19 141
-80 146 -33 3 -42 -2 -80 -41z"/>
<path d="M13568 10077 c-67 -46 -161 -151 -229 -254 -22 -34 -38 -66 -35 -71
9 -15 90 -22 148 -12 82 13 146 47 214 115 68 68 102 146 90 210 -14 71 -94
76 -188 12z"/>
<path d="M18616 11493 c-25 -64 -45 -118 -43 -119 2 -2 77 24 167 58 l163 62
-118 58 c-64 32 -119 58 -120 58 -2 0 -24 -52 -49 -117z"/>
<path d="M2070 10330 c-85 -21 -157 -38 -160 -39 -6 -1 203 -141 211 -141 6 0
129 206 129 216 0 7 -21 3 -180 -36z"/>
<path d="M1261 9095 c-24 -64 -42 -118 -39 -120 3 -4 203 70 288 107 l35 16
-25 10 c-14 5 -67 30 -119 56 -52 25 -94 46 -95 46 -1 0 -21 -52 -45 -115z"/>
<path d="M8895 7950 l-109 -27 144 -97 c80 -53 147 -91 148 -86 3 9 -18 148
-33 218 -7 27 -12 27 -150 -8z"/>
<path d="M10569 7182 c-25 -64 -45 -118 -44 -120 1 -1 76 26 165 61 l164 64
-118 57 c-65 31 -119 56 -120 56 0 0 -22 -53 -47 -118z"/>
<path d="M10560 1535 c-10 -12 -10 -19 -2 -27 22 -22 12 -37 -28 -49 -43 -13
-49 -36 -9 -31 13 1 55 6 93 10 80 8 101 29 34 34 -42 3 -43 4 -43 38 0 39
-23 52 -45 25z"/>
<path d="M10776 1412 c-3 -5 11 -24 31 -43 19 -19 43 -46 52 -61 12 -18 21
-24 31 -18 11 7 11 13 -3 34 -22 33 -21 43 3 49 24 6 27 35 4 44 -11 4 -23 -2
-33 -16 l-17 -22 -19 20 c-19 22 -40 27 -49 13z"/>
<path d="M11134 1396 c-21 -17 -29 -35 -33 -72 -6 -45 -8 -49 -34 -52 -25 -3
-28 -7 -25 -35 2 -27 8 -33 31 -35 l27 -3 0 -105 0 -104 35 0 35 0 0 105 0
105 45 0 c45 0 45 0 45 34 0 34 -1 35 -42 38 -41 3 -43 5 -41 32 3 36 19 48
56 42 25 -5 27 -3 27 28 0 38 -12 46 -65 46 -21 0 -44 -9 -61 -24z"/>
<path d="M12440 1400 c-24 -24 -25 -43 -4 -64 18 -19 55 -21 72 -4 19 19 15
66 -7 78 -28 14 -38 13 -61 -10z"/>
<path d="M10511 1384 c-84 -42 -137 -132 -129 -222 4 -53 36 -66 168 -65 115
0 207 19 274 56 37 21 41 27 38 57 -12 155 -201 249 -351 174z m74 -109 c14
-13 25 -35 25 -47 0 -56 -61 -93 -106 -63 -37 24 -48 52 -34 86 23 54 75 65
115 24z m173 9 c26 -18 28 -50 5 -76 -22 -25 -59 -23 -77 4 -21 30 -20 44 4
68 24 24 38 25 68 4z"/>
<path d="M12560 1200 l0 -210 40 0 40 0 0 52 0 52 53 -52 c49 -48 56 -52 101
-52 l48 0 -66 74 -66 74 67 66 68 66 -49 0 c-43 0 -53 -5 -100 -46 l-51 -47
-3 117 -3 116 -39 0 -40 0 0 -210z"/>
<path d="M7380 1310 c0 -38 -3 -70 -7 -70 -3 0 -14 7 -23 15 -46 41 -139 22
-173 -34 -25 -42 -23 -144 3 -186 34 -55 100 -69 163 -35 31 17 37 17 37 5 0
-8 9 -15 20 -15 19 0 20 7 20 195 0 188 -1 195 -20 195 -18 0 -20 -7 -20 -70z
m-40 -87 c36 -24 40 -32 40 -90 0 -66 -6 -80 -42 -99 -40 -21 -93 -11 -114 20
-65 101 25 232 116 169z"/>
<path d="M9330 1310 l0 -70 -32 20 c-117 71 -231 -70 -169 -207 32 -69 104
-92 169 -53 26 16 32 17 32 5 0 -9 10 -15 25 -15 l25 0 0 195 0 195 -25 0
c-24 0 -25 -2 -25 -70z m-18 -97 c14 -12 18 -31 18 -83 0 -76 -14 -97 -72
-106 -52 -9 -89 27 -95 92 -4 56 11 92 47 112 30 15 76 8 102 -15z"/>
<path d="M9590 1185 c0 -188 1 -195 20 -195 11 0 20 7 20 15 0 12 7 11 40 -6
53 -28 103 -21 144 20 26 26 31 39 34 94 8 130 -77 201 -178 148 l-40 -21 0
70 c0 63 -2 70 -20 70 -19 0 -20 -7 -20 -195z m182 27 c27 -25 32 -36 32 -81
1 -47 -2 -56 -32 -82 -38 -34 -65 -36 -109 -9 -32 19 -33 21 -33 90 0 69 1 71
33 90 44 27 71 25 109 -8z"/>
<path d="M10382 1356 c-20 -27 -42 -34 -42 -15 0 6 -10 9 -22 7 -29 -4 -30
-30 -1 -43 19 -8 22 -15 16 -47 -4 -31 -3 -38 11 -38 9 0 16 8 16 17 0 9 14
41 31 71 33 60 27 94 -9 48z"/>
<path d="M8064 1355 c-8 -21 2 -45 19 -45 20 0 40 27 33 45 -7 19 -45 20 -52
0z"/>
<path d="M7551 1262 c-45 -24 -71 -74 -71 -136 0 -111 100 -176 204 -132 38
16 53 33 39 47 -6 6 -21 4 -39 -6 -16 -8 -43 -15 -61 -15 -40 0 -93 43 -93 76
0 24 0 24 110 24 l110 0 0 31 c0 44 -36 99 -76 115 -45 19 -83 18 -123 -4z
m123 -44 c13 -13 27 -33 31 -45 6 -23 5 -23 -89 -23 l-95 0 11 30 c21 61 95
80 142 38z"/>
<path d="M7840 1268 c-34 -18 -55 -58 -46 -91 7 -30 40 -49 113 -67 53 -13 73
-43 47 -71 -22 -25 -79 -25 -121 0 -27 17 -32 18 -37 5 -10 -27 -7 -32 39 -50
87 -33 176 4 175 74 -1 42 -22 61 -96 85 -71 23 -88 43 -64 72 17 20 80 19
109 -1 19 -14 25 -14 32 -3 12 20 11 23 -12 37 -31 20 -110 25 -139 10z"/>
<path d="M8245 1270 c-46 -18 -69 -58 -73 -124 -7 -102 34 -157 118 -158 28 0
52 7 71 21 l29 22 0 -31 c0 -22 -10 -41 -30 -62 -28 -27 -36 -30 -76 -25 -25
2 -53 12 -62 20 -16 15 -19 15 -30 -3 -10 -17 -8 -21 16 -34 76 -39 170 -27
202 27 18 28 20 51 20 190 0 150 -1 157 -20 157 -11 0 -20 -7 -20 -15 0 -12
-6 -12 -37 5 -39 21 -74 24 -108 10z m113 -50 c31 -19 32 -22 32 -83 0 -54 -4
-67 -24 -86 -28 -27 -86 -32 -112 -10 -51 42 -53 132 -2 174 36 30 62 31 106
5z"/>
<path d="M8588 1261 c-31 -17 -38 -18 -38 -6 0 8 -9 15 -20 15 -19 0 -20 -7
-20 -140 0 -133 1 -140 20 -140 19 0 20 7 20 105 l0 105 33 20 c38 24 66 25
93 6 16 -12 19 -29 22 -125 3 -101 5 -111 23 -111 18 0 19 9 19 119 0 98 -3
122 -18 141 -25 31 -87 36 -134 11z"/>
<path d="M8871 1262 c-59 -32 -89 -124 -62 -194 32 -83 153 -115 223 -58 33
27 12 46 -28 25 -16 -8 -43 -15 -61 -15 -40 0 -93 43 -93 76 0 24 0 24 110 24
l110 0 0 31 c0 44 -36 99 -76 115 -45 19 -83 18 -123 -4z m123 -44 c13 -13 27
-33 31 -45 6 -23 5 -23 -89 -23 l-95 0 11 30 c21 61 95 80 142 38z"/>
<path d="M11392 1264 c-12 -8 -22 -10 -22 -5 0 6 -18 11 -40 11 l-40 0 0 -140
0 -140 40 0 40 0 0 86 c0 47 5 94 10 104 6 11 26 22 45 26 35 6 71 46 60 64
-10 15 -68 12 -93 -6z"/>
<path d="M11543 1260 c-44 -26 -67 -74 -66 -137 0 -60 19 -95 66 -123 40 -25
116 -26 163 -4 38 18 42 33 16 58 -17 15 -22 15 -55 1 -20 -8 -44 -12 -54 -8
-23 8 -53 33 -53 45 0 4 45 8 100 8 l100 0 0 32 c0 50 -36 114 -74 132 -46 22
-104 20 -143 -4z m125 -77 l14 -23 -61 0 c-63 0 -72 7 -45 35 23 22 73 16 92
-12z"/>
<path d="M11853 1264 c-39 -19 -73 -84 -73 -138 0 -53 32 -110 74 -130 44 -21
118 -21 159 0 44 22 43 21 18 48 -21 22 -24 23 -61 10 -46 -16 -83 -6 -100 26
-10 20 -8 20 90 20 l100 0 0 43 c0 106 -108 170 -207 121z m121 -76 c15 -25 5
-29 -58 -26 l-57 3 17 23 c12 18 24 22 51 20 20 -2 41 -10 47 -20z"/>
<path d="M12200 1263 c-17 -12 -25 -13 -28 -5 -2 7 -19 12 -38 12 l-34 0 0
-200 0 -200 40 0 40 0 0 66 c0 60 2 65 18 58 9 -5 40 -9 69 -9 41 0 57 5 78
25 54 50 69 126 37 190 -35 70 -127 102 -182 63z m98 -76 c7 -8 15 -30 19 -49
11 -68 -65 -112 -118 -69 -34 27 -33 95 1 123 26 21 74 19 98 -5z"/>
<path d="M8070 1130 c0 -133 1 -140 20 -140 19 0 20 7 20 140 0 133 -1 140
-20 140 -19 0 -20 -7 -20 -140z"/>
<path d="M9870 1266 c0 -2 25 -63 55 -136 30 -73 55 -140 55 -150 0 -28 -40
-72 -61 -67 -22 6 -34 -32 -13 -40 18 -7 54 2 76 19 13 10 168 355 168 375 0
2 -11 3 -23 3 -26 0 -30 -6 -78 -131 -17 -43 -33 -81 -37 -83 -4 -2 -27 45
-51 105 -38 97 -46 109 -67 109 -13 0 -24 -2 -24 -4z"/>
<path d="M12440 1130 l0 -140 35 0 35 0 0 140 0 140 -35 0 -35 0 0 -140z"/>
<path d="M10846 1131 c-10 -16 -125 -50 -208 -61 -53 -8 -101 -8 -150 -1 -40
5 -74 8 -77 5 -2 -2 16 -23 40 -47 91 -87 233 -92 327 -11 40 34 89 110 79
121 -3 2 -8 0 -11 -6z"/>
</g>
</svg>
