<?xml version="1.0" standalone="no"?>
<!DOCTYPE svg PUBLIC "-//W3C//DTD SVG 20010904//EN"
 "http://www.w3.org/TR/2001/REC-SVG-20010904/DTD/svg10.dtd">
<svg version="1.0" xmlns="http://www.w3.org/2000/svg"
 width="1025.000000pt" height="768.000000pt" viewBox="0 0 1025.000000 768.000000"
 preserveAspectRatio="xMidYMid meet">

<g transform="translate(0.000000,768.000000) scale(0.100000,-0.100000)"
fill="#000000" stroke="none">
<path d="M0 7465 l0 -215 1070 0 1070 0 0 215 0 215 -1070 0 -1070 0 0 -215z
m640 139 c5 -5 5 -26 -1 -53 -14 -64 -5 -75 12 -12 19 74 35 83 140 76 46 -2
90 -5 97 -4 13 0 73 1 95 0 6 0 39 2 72 4 81 6 108 -1 102 -25 -5 -18 0 -20
64 -20 54 0 71 -4 76 -15 5 -14 7 -14 22 -1 21 19 150 21 157 3 2 -7 -5 -39
-16 -71 -25 -74 -25 -76 5 -76 14 0 25 4 25 10 0 5 9 34 21 65 23 62 54 85
113 85 24 0 39 -6 50 -21 l15 -22 27 22 c33 26 95 28 119 4 16 -16 18 -16 27
0 8 14 26 17 119 16 139 -2 140 -3 94 -139 l-32 -95 -119 -2 c-74 -1 -121 2
-125 9 -4 7 -13 7 -27 -1 -11 -6 -41 -11 -66 -11 -35 0 -48 4 -56 20 l-11 21
-26 -21 c-33 -25 -110 -28 -120 -4 -5 15 -7 15 -15 0 -6 -10 -22 -16 -45 -16
-20 0 -44 -7 -54 -16 -26 -23 -117 -24 -133 -1 -11 14 -31 17 -135 18 l-121 1
0 27 -1 26 -15 -27 c-13 -24 -21 -28 -60 -28 -32 0 -46 5 -51 16 -5 15 -7 15
-15 0 -6 -11 -23 -16 -58 -16 -56 0 -59 6 -41 81 8 34 7 35 -15 31 -16 -3 -27
-17 -41 -55 l-18 -52 -128 -1 c-92 -2 -130 1 -133 10 -8 21 113 264 133 268
31 6 83 2 93 -8z"/>
<path d="M544 7588 c-3 -4 -2 -8 2 -8 4 0 -1 -6 -12 -14 -10 -8 -15 -18 -11
-22 4 -4 14 2 23 14 16 24 64 30 64 9 0 -7 -9 -23 -19 -34 -11 -12 -27 -50
-36 -85 -9 -34 -18 -71 -21 -80 -4 -14 1 -18 20 -18 25 0 29 6 41 68 4 20 3
32 -4 32 -6 0 -7 -7 -4 -17 4 -10 2 -14 -4 -10 -6 4 -8 -3 -5 -18 2 -15 0 -25
-7 -25 -7 0 -9 -4 -6 -10 3 -5 -1 -10 -9 -10 -11 0 -13 6 -6 30 5 16 11 34 14
39 4 5 8 24 10 41 2 17 9 37 16 43 10 10 11 5 6 -23 -4 -28 -3 -31 5 -17 6 10
9 27 6 38 -3 10 -2 19 3 19 4 0 10 13 12 29 4 28 2 29 -35 33 -21 2 -41 0 -43
-4z"/>
<path d="M720 7591 c-24 -4 -36 -12 -38 -26 -2 -18 -2 -18 8 -2 12 18 50 24
50 6 0 -5 -4 -8 -8 -5 -5 3 -17 -11 -26 -31 -15 -31 -15 -35 -2 -24 9 8 16 19
16 26 0 15 27 28 40 20 5 -3 14 4 20 15 7 13 7 20 0 20 -5 0 -10 -4 -10 -10 0
-5 -4 -10 -10 -10 -5 0 -7 7 -4 15 4 8 5 14 3 14 -2 -1 -20 -4 -39 -8z"/>
<path d="M805 7562 c-3 -18 -3 -36 0 -41 3 -5 0 -11 -6 -13 -7 -2 -13 -19 -14
-38 -2 -19 -6 -43 -10 -52 -4 -9 -4 -21 -1 -27 4 -5 2 -12 -4 -16 -21 -13 -9
-25 25 -25 33 0 37 4 55 45 11 25 16 53 13 62 -4 10 -2 14 4 10 7 -5 9 0 6 11
-2 11 2 26 10 33 8 8 17 24 21 36 7 22 36 40 36 23 0 -6 5 -10 10 -10 6 0 10
9 10 19 0 16 -5 18 -27 12 -21 -6 -35 -22 -56 -66 -15 -32 -26 -64 -23 -71 3
-8 1 -14 -4 -14 -5 0 -6 -7 -3 -17 4 -10 2 -14 -4 -10 -6 4 -11 1 -10 -6 1
-43 -3 -50 -20 -36 -9 8 -14 9 -10 3 3 -6 1 -11 -6 -11 -7 0 -12 13 -12 29 -1
15 3 28 7 28 5 0 6 11 2 24 -3 13 -1 27 5 31 6 3 9 11 6 16 -4 5 -1 9 5 9 7 0
9 7 6 16 -3 9 -2 12 5 9 5 -4 8 -21 5 -38 -4 -26 -3 -24 8 8 7 22 16 54 20 72
7 28 5 31 -18 29 -20 -1 -26 -8 -31 -34z m37 -2 c-4 -29 -21 -37 -29 -13 -3 9
22 43 31 43 1 0 1 -14 -2 -30z"/>
<path d="M1014 7592 c-6 -4 -13 -15 -17 -25 -6 -15 -4 -16 14 -7 11 6 17 16
13 23 -4 7 -2 7 7 -1 12 -11 11 -15 -3 -26 -10 -7 -15 -16 -11 -20 4 -3 -4 -5
-17 -4 -20 3 -26 -4 -36 -39 -10 -33 -10 -44 -1 -49 7 -4 9 -4 5 0 -3 4 0 19
7 33 8 15 12 30 9 35 -3 4 6 8 19 8 15 0 27 7 31 18 3 9 10 26 15 37 7 16 5
21 -8 22 -10 1 -22 -2 -27 -5z"/>
<path d="M1084 7591 c-2 -2 -4 -8 -4 -13 0 -13 47 -9 53 5 3 7 -5 12 -20 12
-14 0 -27 -2 -29 -4z"/>
<path d="M934 7516 c-3 -19 -12 -37 -19 -40 -7 -2 -16 -22 -19 -43 -4 -21 -10
-48 -13 -60 -5 -21 -1 -23 30 -23 35 0 37 2 72 76 19 42 34 79 31 81 -5 5 -66
-119 -66 -134 0 -8 -23 -10 -51 -4 -3 0 -4 14 -1 31 2 16 8 27 13 25 7 -5 15
17 35 98 3 15 4 27 1 27 -4 0 -9 -15 -13 -34z"/>
<path d="M1060 7518 c-23 -64 -29 -88 -19 -83 5 4 9 13 9 21 0 8 4 13 9 10 5
-3 9 0 8 7 -1 41 4 56 18 51 10 -4 13 -15 10 -33 l-5 -26 10 25 c9 20 8 27 -7
38 -17 13 -16 14 5 7 13 -4 22 -2 22 4 0 6 -11 11 -24 11 -18 0 -27 -8 -36
-32z"/>
<path d="M1165 7540 c4 -6 11 -8 16 -4 5 3 8 1 7 -4 -2 -6 1 -12 7 -13 5 -2
11 4 13 14 3 13 -3 17 -23 17 -15 0 -24 -4 -20 -10z"/>
<path d="M1234 7544 c-7 -3 -10 -13 -7 -23 2 -10 -3 -35 -11 -56 -9 -20 -14
-41 -11 -45 3 -5 1 -10 -3 -12 -5 -1 -12 -15 -16 -30 -6 -25 -4 -28 19 -28 14
0 25 4 25 9 0 5 3 18 6 28 3 10 2 14 -3 8 -11 -14 -33 -17 -33 -6 0 6 4 12 9
15 4 3 12 25 16 48 7 43 7 43 17 15 7 -20 6 -32 -2 -42 -8 -10 -9 -15 -2 -15
10 0 42 93 42 124 0 15 -22 20 -46 10z m27 -17 c-1 -4 -1 -19 -1 -34 0 -34
-10 -24 -16 17 -4 22 -2 31 6 28 6 -2 11 -7 11 -11z m-46 -157 c-3 -5 -12 -10
-18 -10 -7 0 -6 4 3 10 19 12 23 12 15 0z"/>
<path d="M1332 7530 c-7 -11 -8 -20 -3 -20 5 0 11 6 14 14 6 15 43 11 53 -6 9
-14 -38 -118 -53 -118 -17 0 -17 10 7 69 12 30 16 53 10 56 -6 3 -11 1 -11 -4
-1 -6 -3 -15 -4 -21 -1 -5 -3 -17 -4 -25 -1 -9 -7 -12 -16 -9 -13 5 -13 9 -3
22 11 13 10 14 -2 10 -18 -6 -45 -90 -36 -113 4 -12 13 -15 29 -11 36 11 77
14 77 6 0 -5 -6 -10 -12 -13 -10 -3 -10 -8 -2 -17 12 -12 21 7 64 143 l18 57
-22 0 c-12 0 -27 -5 -34 -12 -9 -9 -12 -9 -12 0 0 20 -44 14 -58 -8z m108 1
c0 -5 -7 -24 -15 -44 -8 -19 -11 -38 -7 -42 4 -5 -2 -5 -12 -1 -16 5 -17 4 -6
-9 8 -10 9 -15 2 -15 -6 0 -9 -6 -6 -13 3 -8 -2 -14 -11 -14 -10 0 -14 6 -10
16 4 9 8 25 11 35 2 11 7 22 12 25 4 3 8 17 7 31 0 24 11 40 28 40 4 0 7 -4 7
-9z m-110 -86 c0 -8 -7 -15 -16 -15 -14 0 -14 -1 0 -16 20 -20 20 -26 -1 -22
-21 4 -26 37 -6 45 12 5 12 7 1 14 -10 7 -9 9 5 9 9 0 17 -7 17 -15z"/>
<path d="M1561 7529 c-19 -21 -55 -108 -47 -116 2 -2 8 9 14 26 6 16 22 37 37
47 14 9 23 19 21 22 -3 3 -12 -1 -21 -8 -8 -7 -15 -8 -15 -3 0 5 9 16 20 26
11 9 20 12 20 7 0 -7 6 -7 19 0 25 13 44 13 36 0 -4 -6 -10 -8 -15 -5 -4 2
-10 -6 -12 -20 -4 -21 -1 -25 17 -25 14 0 25 7 28 20 3 12 1 17 -5 14 -5 -3
-8 2 -6 12 5 30 -64 32 -91 3z m89 -23 c0 -3 -4 -8 -10 -11 -5 -3 -10 -1 -10
4 0 6 5 11 10 11 6 0 10 -2 10 -4z"/>
<path d="M1727 7530 c-26 -21 -68 -124 -63 -157 2 -13 13 -19 43 -21 33 -2 46
2 67 23 30 30 33 45 10 45 -10 0 -14 6 -10 15 3 8 2 15 -3 15 -10 0 -32 -70
-25 -81 2 -4 -9 -4 -26 1 -19 5 -28 5 -25 -1 4 -5 2 -9 -3 -9 -15 0 -20 23
-11 48 5 13 14 20 20 16 8 -5 8 -9 -1 -14 -9 -5 -9 -9 -1 -14 6 -4 13 -1 15 6
3 7 14 38 25 69 11 31 18 59 15 61 -2 3 9 4 26 3 37 -2 42 -7 34 -29 -6 -15
-7 -15 -20 1 -12 16 -13 16 -14 2 0 -9 7 -19 15 -23 8 -3 15 -10 15 -16 0 -6
-4 -8 -10 -5 -13 8 -13 -5 0 -25 10 -16 10 -15 14 33 1 6 5 15 10 18 5 4 6 19
2 33 -5 22 -12 26 -40 26 -18 0 -45 -9 -59 -20z m5 -27 c-6 -3 -10 -8 -7 -13
9 -15 -15 -64 -26 -53 -12 12 0 45 14 36 7 -4 8 0 3 12 -6 18 12 41 24 28 3
-3 -1 -8 -8 -10z m42 -115 c-10 -16 -22 -7 -17 13 4 15 8 17 14 8 4 -7 5 -17
3 -21z"/>
<path d="M1861 7488 c-14 -41 -18 -65 -11 -72 7 -7 10 -1 10 17 0 16 6 27 13
27 11 0 11 -9 -2 -50 -8 -27 -21 -50 -28 -50 -7 0 -13 5 -13 11 0 5 4 7 10 4
6 -4 7 1 3 11 -5 14 -8 13 -19 -7 -11 -22 -10 -24 8 -27 26 -5 32 2 52 63 15
44 15 50 1 58 -26 14 -2 67 30 67 6 0 3 -4 -5 -10 -8 -5 -11 -12 -7 -16 9 -9
38 16 31 27 -3 5 -16 9 -29 9 -20 0 -26 -10 -44 -62z"/>
<path d="M1950 7525 c0 -14 -7 -42 -15 -62 -8 -19 -15 -40 -15 -45 0 -5 7 -3
15 6 8 8 15 23 15 32 0 12 3 15 10 8 7 -7 5 -25 -7 -57 -16 -43 -33 -62 -33
-37 0 6 -4 10 -8 10 -5 0 -9 -7 -9 -15 0 -9 9 -15 22 -15 17 0 25 11 39 56 13
41 15 59 7 67 -12 12 -15 67 -3 67 13 0 38 -20 25 -20 -7 0 -13 -10 -13 -22 0
-21 1 -21 15 6 18 34 12 46 -21 46 -19 0 -24 -5 -24 -25z"/>
<path d="M2034 7544 c-7 -3 -10 -13 -7 -22 3 -15 -19 -96 -42 -154 -6 -14 -2
-18 18 -18 17 0 26 7 30 22 8 29 1 36 -8 9 -3 -12 -12 -21 -20 -21 -10 0 -8 9
6 36 10 21 16 41 13 45 -3 5 -1 9 5 9 6 0 8 7 5 15 -4 8 -3 15 0 15 4 0 11
-10 16 -22 6 -17 9 -18 9 -6 1 9 -3 20 -9 23 -15 9 -12 41 5 55 13 10 15 9 15
-9 0 -11 -5 -21 -11 -21 -5 0 -7 -5 -3 -12 5 -8 12 -2 20 17 7 17 10 33 7 38
-5 8 -31 8 -49 1z"/>
<path d="M656 7489 c-11 -37 -13 -56 -5 -68 8 -13 9 -12 4 6 -4 15 1 29 14 42
11 11 16 23 11 26 -7 4 -6 13 0 26 7 12 7 19 1 19 -6 0 -17 -23 -25 -51z"/>
<path d="M745 7529 c-10 -15 1 -23 20 -15 9 3 13 10 10 16 -8 13 -22 13 -30
-1z"/>
<path d="M496 7493 c-9 -20 -13 -40 -9 -44 5 -5 9 1 10 13 1 11 6 25 11 30 17
17 20 -6 5 -40 -11 -28 -16 -32 -28 -22 -11 9 -15 9 -15 1 0 -6 5 -11 10 -11
6 0 10 -7 10 -16 0 -13 -3 -14 -14 -5 -12 10 -18 7 -31 -18 l-16 -31 28 0 c25
0 31 7 56 71 23 61 25 73 14 90 -13 17 -15 16 -31 -18z m-16 -119 c0 -14 -12
-19 -23 -8 -9 9 4 35 14 28 5 -3 9 -12 9 -20z"/>
<path d="M1122 7440 l-30 -90 27 0 c24 0 28 6 48 68 11 37 20 68 18 70 -5 6
-48 -94 -47 -110 0 -10 -5 -15 -13 -12 -10 4 -11 13 -3 37 5 18 12 42 15 54 3
13 9 20 14 17 5 -3 6 2 3 10 -4 10 -1 16 10 16 10 0 13 6 10 15 -12 29 -22 14
-52 -75z"/>
<path d="M725 7480 c-17 -18 -17 -20 -1 -20 9 0 15 4 12 9 -4 5 0 11 6 14 7 2
10 7 7 11 -3 3 -14 -3 -24 -14z"/>
<path d="M1895 7490 c3 -5 8 -10 11 -10 2 0 4 5 4 10 0 6 -5 10 -11 10 -5 0
-7 -4 -4 -10z"/>
<path d="M1555 7460 c-10 -11 -15 -20 -10 -20 4 0 1 -8 -6 -17 -12 -14 -12
-16 0 -8 11 6 13 4 7 -11 -5 -10 -9 -25 -9 -32 0 -7 -5 -11 -11 -9 -6 2 -9 13
-8 23 3 15 1 16 -8 7 -25 -24 -3 -44 42 -41 27 2 42 8 41 15 -2 7 3 10 10 7 8
-3 18 6 24 19 9 20 8 23 -13 25 -15 1 -24 -4 -24 -12 0 -19 -29 -48 -41 -40
-5 3 -7 9 -4 14 7 11 34 100 31 100 -2 0 -11 -9 -21 -20z"/>
<path d="M1595 7462 c-13 -14 -2 -22 30 -22 19 0 35 4 35 9 0 10 -57 21 -65
13z"/>
<path d="M678 7453 c7 -3 16 -2 19 1 4 3 -2 6 -13 5 -11 0 -14 -3 -6 -6z"/>
<path d="M1080 7447 c0 -9 -4 -17 -10 -17 -5 0 -9 -3 -8 -7 4 -19 -15 -60 -28
-60 -8 0 -14 4 -14 9 0 4 4 8 8 8 4 0 8 10 9 21 2 25 1 24 -21 -18 l-17 -33
29 0 c25 0 30 6 46 50 10 28 16 54 12 57 -3 4 -6 -1 -6 -10z"/>
<path d="M623 7385 c-11 -33 -10 -35 13 -35 17 0 27 8 34 26 14 35 12 47 -3
32 -8 -7 -12 -20 -9 -30 3 -12 -1 -18 -12 -18 -12 0 -14 7 -9 30 8 41 -1 38
-14 -5z"/>
<path d="M1427 7370 c-6 -25 28 -29 37 -4 9 23 8 24 -13 24 -10 0 -21 -9 -24
-20z"/>
<path d="M1339 7349 c-8 -15 -14 -18 -22 -10 -16 16 -57 14 -57 -4 0 -18 11
-19 29 -2 11 10 12 9 6 -3 -5 -8 -5 -12 0 -8 4 4 13 4 19 -1 13 -10 56 4 56
19 0 5 -5 10 -11 10 -5 0 -7 5 -4 10 3 6 4 10 1 10 -3 0 -10 -9 -17 -21z"/>
<path d="M10244 7460 c0 -124 2 -174 3 -112 2 61 2 163 0 225 -1 61 -3 11 -3
-113z"/>
<path d="M6331 7104 c0 -11 3 -14 6 -6 3 7 2 16 -1 19 -3 4 -6 -2 -5 -13z"/>
<path d="M6334 6895 c0 -99 2 -138 3 -87 2 51 2 132 0 180 -1 48 -3 6 -3 -93z"/>
<path d="M3430 7017 c0 -10 -8 -17 -20 -17 -11 0 -20 -4 -20 -9 0 -5 9 -7 21
-4 21 6 36 29 25 40 -3 4 -6 -1 -6 -10z"/>
<path d="M7919 6615 c-6 -453 -4 -505 16 -505 28 0 35 69 8 76 -17 5 -18 25
-15 272 1 147 1 337 0 422 -2 85 -5 -34 -9 -265z"/>
<path d="M7049 6657 c-18 -12 -41 -36 -50 -52 -19 -32 -38 -120 -21 -96 13 18
19 -37 12 -104 l-6 -50 -8 50 c-4 28 -8 57 -9 65 -2 9 -12 1 -28 -22 -21 -31
-28 -35 -39 -25 -12 10 -12 9 -2 -4 10 -14 6 -30 -22 -93 -20 -43 -50 -94 -68
-116 -19 -21 -34 -49 -35 -62 -1 -12 -7 -24 -13 -26 -16 -6 -12 -32 5 -32 8 0
15 -4 15 -10 0 -5 -7 -10 -16 -10 -8 0 -13 -4 -10 -9 11 -17 -156 -21 -1104
-23 -536 -1 -949 -3 -917 -5 53 -4 57 -6 57 -28 0 -14 5 -25 11 -25 5 0 7 5 4
10 -3 6 1 17 9 25 13 13 55 15 283 13 l268 -3 3 -32 c4 -38 22 -45 22 -9 0 13
6 28 13 33 7 5 91 8 200 5 l187 -4 0 -34 c0 -47 20 -43 21 4 1 33 2 34 9 12 8
-24 8 -24 9 -2 l1 22 218 0 c120 0 221 -3 224 -6 3 -3 -1 -23 -10 -45 -11 -28
-23 -41 -41 -45 -46 -10 -83 -27 -112 -52 -28 -23 -35 -24 -144 -20 -63 1
-115 0 -115 -3 0 -4 7 -12 15 -19 11 -9 15 -9 15 -1 0 13 231 4 240 -10 3 -4
12 -4 20 1 8 6 52 10 98 10 75 0 82 -2 83 -20 1 -11 3 -24 4 -30 1 -5 4 -67 5
-137 l3 -128 9 120 c12 161 13 165 43 165 l25 0 1 -152 c1 -84 2 -169 3 -190
0 -20 -2 -34 -6 -31 -5 2 -8 13 -8 23 0 29 -28 50 -65 50 -61 0 -65 -12 -58
-183 3 -83 10 -158 16 -164 12 -16 79 -17 95 -1 7 7 12 32 12 56 0 56 14 82
40 75 16 -4 20 0 20 20 0 14 5 29 10 32 12 8 13 45 1 45 -13 0 0 224 13 232
22 15 75 8 130 -18 l57 -26 -3 -56 c-3 -51 -5 -57 -23 -54 -11 2 -36 18 -55
35 -24 22 -28 24 -14 7 53 -64 60 -151 15 -205 -15 -19 -15 -19 4 -5 63 47
112 52 159 17 53 -40 62 -42 36 -10 -14 17 -28 29 -31 27 -3 -2 -6 18 -7 44
-2 38 -7 52 -32 74 -27 25 -29 31 -23 76 l5 49 62 12 c34 7 69 9 78 6 16 -6
44 26 32 37 -2 3 9 31 26 63 26 50 30 68 30 139 1 64 3 77 12 61 19 -35 62
-76 99 -96 33 -17 38 -25 55 -91 22 -92 24 -109 9 -114 -10 -4 -10 -19 -1 -68
7 -34 13 -107 13 -162 1 -60 -2 -84 -6 -60 -6 42 -33 68 -51 50 -5 -5 -10 -44
-11 -85 -1 -125 -2 -121 29 -117 23 3 27 8 30 40 3 30 8 39 27 44 29 7 46 -2
38 -21 -3 -8 -2 -27 1 -41 5 -20 12 -25 34 -22 l27 3 0 94 c0 78 -3 96 -17
105 -24 15 -39 -2 -41 -47 -4 -70 -17 -37 -17 43 0 50 4 80 11 80 5 0 8 4 5 8
-3 5 -2 41 3 80 4 40 4 72 -1 72 -13 0 -9 50 9 122 15 57 22 69 45 79 16 6 50
35 76 63 l47 52 -3 -60 c-4 -64 9 -125 36 -166 9 -14 18 -34 19 -45 6 -38 13
-47 30 -40 10 3 46 1 80 -6 l63 -13 0 -53 c0 -29 4 -53 9 -53 9 0 21 48 21 86
0 18 8 27 28 34 15 6 38 16 52 24 34 19 94 23 114 7 13 -11 16 -33 14 -120 0
-58 -5 -112 -11 -118 -6 -9 -6 -17 1 -25 5 -7 12 -24 14 -38 2 -16 11 -26 28
-30 22 -5 25 -12 28 -60 2 -30 8 -60 14 -67 6 -7 30 -13 54 -13 39 0 46 3 54
26 15 38 13 307 -2 322 -7 7 -28 12 -48 12 -41 0 -60 -14 -60 -46 0 -12 -7
-24 -14 -27 -10 -4 -13 -1 -10 8 3 7 -1 12 -8 12 -7 -1 -13 3 -13 8 0 6 6 9
13 9 9 -1 12 38 12 167 l0 169 29 0 28 0 10 -112 11 -113 -2 193 c-1 124 3
191 9 189 6 -2 18 -22 29 -44 15 -34 25 -42 60 -51 l41 -10 -62 -1 c-35 0 -63
-5 -63 -10 0 -14 174 -18 313 -7 80 6 122 5 129 -2 6 -6 12 -29 13 -51 3 -30
-3 -50 -22 -78 -19 -28 -20 -33 -6 -20 11 9 24 17 30 17 6 0 15 6 21 13 11 13
72 15 91 2 7 -3 11 2 11 15 0 12 -4 19 -9 16 -5 -4 -7 4 -4 16 3 13 2 20 -2
16 -14 -13 -45 12 -45 37 0 19 -7 26 -27 31 -48 10 -54 14 -47 25 4 8 3 9 -5
5 -6 -4 -9 -12 -6 -17 4 -5 -35 -9 -95 -9 -97 0 -103 1 -138 29 -20 16 -56 35
-80 41 -35 9 -46 18 -58 45 -8 19 -14 39 -14 45 0 6 77 10 225 10 l225 0 0
-41 c0 -51 20 -43 21 9 1 33 2 34 9 12 8 -24 8 -24 9 -2 1 22 2 22 160 22 87
0 173 3 190 6 30 6 31 6 31 -30 0 -20 5 -36 11 -36 7 0 9 10 7 24 -4 18 -1 23
10 18 9 -3 13 -1 9 5 -10 16 76 22 326 23 240 0 235 1 228 -42 0 -5 3 -8 8 -8
5 0 11 10 13 23 3 21 7 22 148 27 80 3 -398 7 -1062 8 l-1208 2 0 -23 c0 -57
-96 -117 -205 -129 -22 -2 -30 1 -30 13 0 9 -5 23 -11 30 -6 8 -36 62 -68 121
-31 59 -61 110 -67 113 -5 4 0 19 13 38 19 26 19 30 4 24 -10 -4 -15 -3 -11 3
3 5 1 18 -5 29 -8 16 -7 22 8 30 13 7 22 7 29 0 6 -6 30 -9 54 -7 36 3 44 7
50 28 4 16 7 19 8 8 1 -14 10 -18 41 -18 88 0 131 53 132 163 1 42 -5 73 -16
92 -11 19 -15 22 -11 9 3 -12 1 -34 -5 -50 -6 -16 -14 -47 -17 -69 -3 -22 -9
-41 -14 -43 -4 -2 -6 -9 -3 -17 8 -19 -51 -77 -72 -73 -27 5 -42 80 -30 146 8
47 8 55 -8 64 -11 6 -15 16 -10 30 3 11 7 27 8 34 1 7 5 17 9 20 4 4 7 14 7
23 -1 47 -51 62 -101 28z m-25 -323 c5 -14 4 -15 -9 -4 -17 14 -19 20 -6 20 5
0 12 -7 15 -16z m93 -10 c8 -20 -13 -42 -27 -28 -12 12 -3 44 11 44 5 0 12 -7
16 -16z m-769 -329 c-6 -14 -13 -23 -15 -21 -5 5 15 46 22 46 3 0 -1 -11 -7
-25z m1606 -25 c-7 -6 -24 22 -23 40 0 9 6 5 14 -10 7 -14 11 -27 9 -30z
m-1636 -75 l-1 -45 -61 1 -61 1 43 10 c36 8 46 15 58 44 8 19 16 34 19 34 2 0
4 -20 3 -45z m1412 -157 c9 -42 14 -81 11 -87 -3 -5 -28 -9 -56 -10 -27 0 -90
-5 -140 -10 -105 -13 -110 -13 -103 -5 3 3 58 11 123 19 64 7 119 15 121 18 3
2 0 44 -6 93 -5 49 -10 105 -9 124 l0 35 21 -50 c12 -27 29 -85 38 -127z
m-1570 118 c0 -2 -8 -10 -17 -17 -16 -13 -17 -12 -4 4 13 16 21 21 21 13z
m958 -119 c2 -19 9 -27 23 -27 11 0 19 -7 19 -16 0 -14 -2 -15 -17 -3 -15 12
-16 12 -10 -3 3 -10 3 -18 -1 -18 -5 0 -14 17 -21 38 -8 20 -16 43 -19 51 -3
9 0 12 9 9 8 -2 15 -17 17 -31z m71 21 c0 -7 -4 -22 -9 -33 -7 -17 -9 -15 -9
13 -1 17 4 32 9 32 6 0 10 -6 9 -12z m-594 -45 c-8 -46 -22 -64 -35 -43 -10
17 6 53 21 45 5 -4 9 3 9 14 0 12 3 21 6 21 3 0 3 -17 -1 -37z m1223 -80 l-3
-28 -18 33 c-18 33 -18 35 0 54 18 20 18 20 21 -6 2 -14 2 -38 0 -53z m-1327
14 c-15 -38 -21 -33 -21 15 0 38 2 41 15 27 12 -12 14 -21 6 -42z m197 -4
c-10 -2 -28 -2 -40 0 -13 2 -5 4 17 4 22 1 32 -1 23 -4z m462 -8 c0 -8 -4 -15
-10 -15 -5 0 -10 7 -10 15 0 8 5 15 10 15 6 0 10 -7 10 -15z m-325 -5 c31 -7
24 -7 -30 -3 -38 3 -72 7 -74 9 -8 7 64 3 104 -6z m-375 -175 c0 -8 -7 -15
-15 -15 -8 0 -15 7 -15 15 0 8 7 15 15 15 8 0 15 -7 15 -15z m0 -65 c0 -16 -4
-30 -10 -30 -5 0 -10 14 -10 30 0 17 5 30 10 30 6 0 10 -13 10 -30z m1400 0
c0 -16 -4 -30 -10 -30 -5 0 -10 14 -10 30 0 17 5 30 10 30 6 0 10 -13 10 -30z
m37 8 c-3 -8 -6 -5 -6 6 -1 11 2 17 5 13 3 -3 4 -12 1 -19z"/>
<path d="M3331 6638 c-1 -11 -9 -18 -21 -18 -11 0 -20 -4 -20 -10 0 -14 13
-13 34 3 11 8 16 20 13 28 -4 10 -6 9 -6 -3z"/>
<path d="M3100 6614 c10 -11 23 -14 54 -9 68 11 66 25 -3 25 -56 0 -62 -2 -51
-16z"/>
<path d="M6321 6614 c0 -11 3 -14 6 -6 3 7 2 16 -1 19 -3 4 -6 -2 -5 -13z"/>
<path d="M2633 6566 c-13 -6 -23 -14 -23 -19 0 -4 16 -39 35 -78 39 -77 67
-90 73 -34 4 27 -44 147 -57 144 -3 -1 -16 -6 -28 -13z"/>
<path d="M6322 6333 c-2 -227 -2 -231 18 -226 16 4 20 14 20 44 0 28 -4 39
-15 39 -12 0 -15 30 -18 188 l-2 187 -3 -232z"/>
<path d="M2738 6410 c-2 -19 -11 -26 -33 -30 l-30 -6 24 -13 c18 -10 25 -10
31 -1 5 8 9 7 13 -5 4 -9 3 -14 -2 -11 -10 6 -21 -16 -21 -42 0 -13 4 -12 23
6 16 15 27 18 37 12 24 -16 31 -11 20 11 -9 16 -8 24 4 38 22 24 20 30 -5 24
-15 -4 -27 1 -39 17 l-18 24 -4 -24z m35 -61 c-9 -9 -12 -7 -10 9 1 14 5 18
11 12 7 -7 6 -14 -1 -21z"/>
<path d="M7369 6413 c-13 -16 -12 -17 4 -4 9 7 17 15 17 17 0 8 -8 3 -21 -13z"/>
<path d="M2754 6286 c-6 -15 61 -156 74 -156 4 0 17 7 29 15 l21 14 -31 60
c-17 34 -40 64 -54 70 -31 14 -33 14 -39 -3z"/>
<path d="M2238 6283 c6 -2 18 -2 25 0 6 3 1 5 -13 5 -14 0 -19 -2 -12 -5z"/>
<path d="M7298 6244 c-3 -5 -2 -18 2 -28 3 -11 9 -15 12 -10 3 5 2 18 -2 28
-3 11 -9 15 -12 10z"/>
<path d="M4389 6058 c-1 -13 0 -34 1 -48 l2 -25 -23 20 -23 20 17 -27 c22 -35
22 -76 0 -102 l-18 -21 25 20 c14 11 37 20 53 19 l27 -1 -25 32 c-22 30 -23
33 -6 38 10 2 18 11 18 20 0 8 -6 13 -14 10 -9 -4 -13 5 -13 31 0 39 -19 51
-21 14z"/>
<path d="M9850 6060 c-2 -14 -2 -35 -1 -47 2 -28 -6 -29 -33 -5 l-21 17 20
-23 c11 -13 19 -34 17 -46 -4 -29 15 -45 50 -43 l27 2 -22 25 c-12 14 -26 29
-32 33 -6 5 2 7 17 4 18 -3 32 2 40 12 10 13 10 14 -1 5 -19 -17 -49 16 -54
58 -3 28 -4 29 -7 8z"/>
<path d="M3616 6039 c18 -21 25 -21 159 -16 93 4 153 11 180 21 22 9 29 14 15
11 -14 -3 -82 -9 -152 -12 -95 -4 -131 -3 -143 7 -10 8 -15 9 -15 1 0 -6 -5
-11 -11 -11 -5 0 -7 5 -4 10 4 6 -5 10 -21 10 -27 0 -27 0 -8 -21z"/>
<path d="M4648 6033 c7 -3 16 -2 19 1 4 3 -2 6 -13 5 -11 0 -14 -3 -6 -6z"/>
<path d="M4449 5983 c-13 -16 -12 -17 4 -4 16 13 21 21 13 21 -2 0 -10 -8 -17
-17z"/>
<path d="M4791 5938 c-1 -21 4 -28 17 -28 11 0 13 3 6 8 -7 4 -14 16 -17 27
-4 15 -5 14 -6 -7z"/>
<path d="M9470 5938 c0 -9 5 -20 11 -23 17 -11 20 0 4 21 -13 17 -14 17 -15 2z"/>
<path d="M4753 5923 c9 -11 17 -32 17 -48 0 -16 -8 -37 -17 -48 -18 -20 -18
-20 9 -3 15 10 32 15 37 12 5 -4 13 -2 16 4 5 8 12 7 23 -2 10 -7 -4 11 -29
41 -25 30 -52 57 -60 59 -10 4 -9 -1 4 -15z"/>
<path d="M5295 5930 c-8 -13 34 -72 46 -65 5 4 9 -5 9 -20 0 -16 -12 -36 -32
-54 -26 -23 -30 -32 -21 -42 9 -9 18 -6 42 13 16 14 27 29 24 32 -4 3 3 6 15
6 27 0 28 17 2 50 -11 14 -20 30 -20 36 0 11 -42 54 -53 54 -3 0 -9 -5 -12
-10z m38 -25 c10 -14 15 -25 11 -25 -11 0 -44 32 -44 42 0 15 15 8 33 -17z
m-8 -145 c-3 -5 -11 -10 -16 -10 -6 0 -7 5 -4 10 3 6 11 10 16 10 6 0 7 -4 4
-10z"/>
<path d="M5371 5913 c-1 -25 3 -33 17 -33 11 0 13 3 6 8 -7 4 -14 18 -17 32
-4 21 -4 20 -6 -7z"/>
<path d="M5432 5917 c-24 -26 -29 -57 -9 -57 19 0 70 57 63 69 -11 17 -31 13
-54 -12z m23 -17 c-10 -11 -23 -20 -29 -20 -6 0 1 11 14 24 30 28 41 25 15 -4z"/>
<path d="M8805 5930 c-7 -12 13 -42 24 -36 4 3 13 0 21 -6 12 -8 12 -9 -2 -4
-10 3 -18 1 -18 -4 0 -5 8 -14 18 -20 12 -7 -31 -9 -156 -8 -97 2 -171 -1
-169 -6 2 -5 78 -8 170 -7 114 2 167 -1 167 -9 0 -5 -14 -23 -32 -39 -18 -16
-28 -33 -24 -39 10 -17 18 -15 51 16 33 31 65 47 65 32 0 -13 41 -60 52 -60 5
0 6 4 3 10 -3 6 1 7 9 4 9 -3 16 -2 16 3 0 15 -55 63 -72 63 -16 0 -58 49 -58
67 0 10 -42 53 -53 53 -3 0 -9 -5 -12 -10z m40 -159 c-9 -8 -36 -10 -30 -2 2
4 11 8 20 8 8 0 13 -3 10 -6z"/>
<path d="M8946 5919 c-25 -20 -36 -59 -16 -59 19 0 73 57 66 68 -10 17 -19 15
-50 -9z m34 1 c0 -5 -5 -10 -11 -10 -5 0 -7 5 -4 10 3 6 8 10 11 10 2 0 4 -4
4 -10z"/>
<path d="M9440 5926 c22 -27 20 -77 -4 -106 l-21 -25 26 23 c15 13 33 20 41
17 9 -4 19 -1 23 5 10 16 -11 50 -48 80 -21 16 -27 18 -17 6z"/>
<path d="M5791 5891 c-1 -32 2 -42 10 -34 7 7 7 21 1 44 l-10 34 -1 -44z"/>
<path d="M8461 5891 c-1 -28 3 -41 8 -35 6 5 6 24 1 44 l-8 35 -1 -44z"/>
<path d="M8881 5908 c-1 -21 4 -28 17 -28 11 0 13 3 6 8 -7 4 -14 16 -17 27
-4 15 -5 14 -6 -7z"/>
<path d="M9814 5899 c-19 -22 -19 -22 4 -8 12 8 22 17 22 21 0 12 -6 9 -26
-13z"/>
<path d="M5904 5888 l-19 -23 23 19 c21 18 27 26 19 26 -2 0 -12 -10 -23 -22z"/>
<path d="M8565 5889 c-11 -17 1 -21 15 -4 8 9 8 15 2 15 -6 0 -14 -5 -17 -11z"/>
<path d="M5575 5850 l-160 -6 157 -2 c104 -1 159 -6 164 -13 15 -24 11 -85 -6
-116 l-19 -32 34 19 c50 28 95 28 136 0 l34 -24 -22 25 c-13 14 -23 31 -23 38
0 7 -4 9 -10 6 -6 -3 -7 1 -4 9 4 11 -2 19 -20 26 -18 7 -26 17 -26 35 0 24
-9 29 -65 38 -5 1 -82 0 -170 -3z"/>
<path d="M2605 5820 c3 -5 8 -10 11 -10 2 0 4 5 4 10 0 6 -5 10 -11 10 -5 0
-7 -4 -4 -10z"/>
<path d="M5410 5807 c0 -21 49 -67 65 -61 21 8 19 17 -13 47 -30 29 -52 35
-52 14z m60 -48 c0 -6 -4 -7 -10 -4 -5 3 -10 11 -10 16 0 6 5 7 10 4 6 -3 10
-11 10 -16z"/>
<path d="M4132 5708 l-2 -38 -92 0 -91 0 24 -26 24 -26 180 5 c182 5 298 25
328 57 9 10 7 11 -13 4 -14 -4 -75 -8 -136 -9 -60 -1 -115 -5 -122 -8 -7 -5
-12 7 -15 35 l-4 43 -1 -45 c-2 -44 -3 -45 -34 -45 -31 0 -33 2 -39 45 -6 45
-6 45 -7 8z"/>
<path d="M8550 5706 c0 -2 8 -10 18 -17 15 -13 16 -12 3 4 -13 16 -21 21 -21
13z"/>
<path d="M2700 5575 c0 -5 5 -17 10 -25 5 -8 10 -10 10 -5 0 6 -5 17 -10 25
-5 8 -10 11 -10 5z"/>
<path d="M2527 5549 c7 -7 15 -10 18 -7 3 3 -2 9 -12 12 -14 6 -15 5 -6 -5z"/>
<path d="M2720 5516 c0 -8 4 -17 9 -20 5 -4 7 3 4 14 -6 23 -13 26 -13 6z"/>
<path d="M2546 5507 c3 -10 9 -15 12 -12 3 3 0 11 -7 18 -10 9 -11 8 -5 -6z"/>
<path d="M6774 5488 l-19 -23 23 19 c21 18 27 26 19 26 -2 0 -12 -10 -23 -22z"/>
<path d="M6731 5467 c-9 -11 -8 -17 5 -28 13 -10 17 -10 24 1 5 8 6 17 2 20
-4 3 -10 9 -13 13 -3 4 -11 1 -18 -6z"/>
<path d="M7510 5457 c0 -9 5 -19 10 -22 6 -3 10 -27 10 -52 0 -34 -7 -55 -27
-82 -26 -35 -26 -35 -2 -16 62 51 103 57 159 24 l35 -21 -23 24 c-12 14 -19
28 -15 31 3 4 1 7 -6 7 -8 0 -10 7 -6 20 4 11 3 20 -2 19 -32 -5 -43 3 -43 31
0 29 -15 38 -54 31 -4 -1 -14 4 -22 10 -11 9 -14 8 -14 -4z"/>
<path d="M7636 5461 c-3 -5 1 -14 8 -20 18 -15 28 0 10 16 -7 7 -15 9 -18 4z"/>
<path d="M3457 5446 c-3 -8 0 -17 8 -19 15 -7 25 1 25 20 0 17 -26 17 -33 -1z"/>
<path d="M2785 5340 c3 -5 8 -10 11 -10 2 0 4 5 4 10 0 6 -5 10 -11 10 -5 0
-7 -4 -4 -10z"/>
<path d="M2648 5193 c6 -2 18 -2 25 0 6 3 1 5 -13 5 -14 0 -19 -2 -12 -5z"/>
<path d="M2798 5183 c6 -2 18 -2 25 0 6 3 1 5 -13 5 -14 0 -19 -2 -12 -5z"/>
<path d="M1411 5154 c13 -14 41 -35 62 -45 20 -11 37 -22 37 -25 0 -10 -68
-33 -87 -30 -34 7 -281 -22 -377 -44 l-96 -22 0 -162 0 -162 93 -22 c137 -32
204 -40 400 -48 163 -6 177 -6 177 10 0 16 26 17 405 10 l405 -7 0 25 c0 24 4
26 65 33 77 8 242 48 279 67 24 13 14 14 -97 13 -68 -1 -129 -5 -136 -9 -6 -4
-18 -3 -25 3 -7 6 -29 9 -49 7 l-36 -5 -3 52 -3 52 -180 2 c-175 1 -275 15
-277 39 -3 33 228 87 337 78 37 -3 78 -9 91 -15 35 -13 34 -13 34 24 l0 32
183 54 c100 30 210 62 244 71 34 9 66 19 70 23 5 6 -1277 13 -1442 8 -16 0
-45 4 -64 9 l-34 9 24 -25z m1006 -10 c-3 -3 -12 -4 -19 -1 -8 3 -5 6 6 6 11
1 17 -2 13 -5z"/>
<path d="M5040 4750 c0 -5 9 -10 21 -10 11 0 17 5 14 10 -3 6 -13 10 -21 10
-8 0 -14 -4 -14 -10z"/>
<path d="M6730 4590 c0 -5 5 -10 10 -10 6 0 10 5 10 10 0 6 -4 10 -10 10 -5 0
-10 -4 -10 -10z"/>
<path d="M6780 4584 c0 -8 5 -12 10 -9 6 4 8 11 5 16 -9 14 -15 11 -15 -7z"/>
<path d="M5326 4575 c-4 -10 1 -15 14 -15 11 0 20 5 20 10 0 6 5 10 11 10 5 0
7 -4 4 -10 -3 -5 -1 -10 4 -10 6 0 11 4 11 10 0 5 37 11 83 13 75 3 72 3 -29
5 -92 2 -113 -1 -118 -13z"/>
<path d="M1170 4545 c0 -12 -15 -15 -75 -15 -60 0 -75 -3 -75 -15 0 -13 39
-15 290 -15 l290 0 0 30 0 30 -215 0 c-184 0 -215 -2 -215 -15z"/>
<path d="M7028 4553 c6 -3 12 -8 12 -13 0 -5 18 -8 40 -8 48 0 55 18 8 18 -18
0 -42 2 -53 4 -11 2 -14 1 -7 -1z"/>
<path d="M5215 4530 c-3 -5 3 -10 14 -10 11 0 23 5 26 10 3 6 -3 10 -14 10
-11 0 -23 -4 -26 -10z"/>
<path d="M5785 4479 c-4 -6 -5 -12 -2 -15 2 -3 7 2 10 11 7 17 1 20 -8 4z"/>
<path d="M255 4390 c-15 -16 -16 -22 -5 -36 19 -22 79 -51 123 -59 20 -4 37
-13 37 -19 0 -22 45 -56 74 -56 15 0 25 4 21 9 -6 11 59 26 73 17 5 -3 104 -6
221 -6 153 -1 213 -5 217 -13 3 -8 30 -12 78 -11 65 1 75 -1 79 -17 5 -18 18
-19 216 -18 l211 1 6 24 6 23 321 -5 c362 -6 799 -37 1177 -85 247 -31 318
-41 595 -89 94 -16 191 -32 218 -36 26 -3 47 -10 47 -14 0 -4 27 -8 61 -9 34
-1 64 -3 68 -6 4 -2 30 -7 57 -10 93 -13 449 -86 539 -111 50 -14 95 -26 102
-27 7 0 10 -5 6 -10 -3 -5 4 -6 18 -3 15 4 10 -1 -11 -12 -23 -12 -37 -14 -42
-7 -6 7 -10 6 -15 -1 -5 -7 -32 -22 -61 -35 -28 -12 -52 -27 -52 -32 0 -5 7
-4 15 3 8 7 33 13 54 14 22 0 39 5 38 10 -1 5 7 9 18 11 32 3 69 17 77 28 7
12 64 12 98 -1 21 -8 14 -12 -59 -40 -90 -35 -101 -37 -101 -22 0 6 -11 3 -25
-6 -13 -8 -30 -12 -36 -8 -8 4 -9 3 -5 -4 5 -8 -1 -12 -16 -12 -17 0 -19 -3
-9 -9 9 -6 -2 -14 -40 -26 -30 -10 -49 -20 -43 -22 6 -2 89 26 185 63 347 133
521 174 1079 254 79 12 255 41 390 66 317 58 495 80 782 99 481 32 620 56 971
171 93 30 190 56 217 58 27 1 53 5 57 10 4 4 -20 6 -52 4 -33 -1 -70 3 -82 10
-12 7 -25 12 -30 12 -4 -1 3 -7 17 -15 l25 -13 -28 -11 c-15 -6 -38 -13 -50
-16 -12 -2 -47 -12 -77 -20 -30 -9 -71 -18 -90 -21 -19 -3 -48 -7 -65 -10 -16
-2 -50 -6 -75 -9 -25 -2 -88 -11 -140 -19 -122 -19 -420 -33 -420 -19 0 6 -12
9 -27 7 -16 -2 -62 -6 -103 -9 -41 -3 -115 -10 -165 -16 -49 -5 -130 -12 -179
-15 -49 -2 -102 -7 -118 -9 -45 -8 -49 2 -19 48 30 43 48 107 31 107 -6 0 -10
-10 -10 -22 0 -17 -3 -19 -12 -10 -17 17 -28 15 -29 -5 0 -15 -2 -15 -8 2 -5
11 -7 23 -4 28 2 4 -7 7 -21 7 -16 0 -26 -6 -26 -14 0 -9 -9 -14 -20 -13 -11
1 -20 7 -20 15 0 8 -7 11 -17 8 -27 -8 -135 -20 -161 -18 -13 1 -33 9 -45 17
-21 15 -22 13 -34 -46 -7 -33 -22 -75 -33 -92 -12 -18 -19 -23 -15 -12 4 11
12 44 18 73 17 79 2 93 -90 83 -6 0 -13 -13 -15 -28 -2 -20 -9 -29 -25 -31
-20 -3 -23 1 -23 27 0 28 -3 31 -30 31 -22 0 -30 -5 -31 -17 0 -12 -2 -13 -6
-5 -4 10 -8 10 -19 1 -11 -9 -14 -8 -14 8 0 18 -6 19 -81 15 -60 -2 -84 0 -91
10 -6 8 -8 -9 -6 -47 l3 -61 -35 3 c-19 1 -91 -1 -160 -4 -96 -5 -117 -8 -90
-15 53 -12 96 -16 344 -33 127 -8 232 -18 235 -21 6 -7 -461 3 -519 10 -49 6
-461 19 -600 19 -102 0 -107 0 -45 6 l70 7 -77 2 c-50 1 -78 -2 -78 -9 0 -7
-26 -9 -77 -5 -43 3 -195 8 -338 11 -143 4 -269 8 -280 10 -11 3 -105 9 -209
15 -107 6 -195 15 -203 22 -9 7 -17 7 -27 -1 -10 -9 -36 -9 -98 -2 -78 10
-134 13 -168 10 -8 -1 -71 1 -140 5 -69 3 -361 8 -650 11 -289 2 -588 7 -665
11 -77 3 -320 7 -540 9 -473 3 -435 1 -435 20 0 11 -13 15 -52 16 -29 1 -64 3
-77 4 -16 2 -25 -4 -28 -15 -5 -17 -21 -18 -201 -18 -109 0 -210 4 -227 8 -16
5 -56 14 -87 21 -51 11 -56 14 -47 30 13 25 7 24 -16 -1z m6375 -84 c0 -3 -4
-8 -10 -11 -5 -3 -10 -1 -10 4 0 6 5 11 10 11 6 0 10 -2 10 -4z m-810 -41 c0
-8 -4 -15 -10 -15 -5 0 -10 7 -10 15 0 8 5 15 10 15 6 0 10 -7 10 -15z m70 0
c0 -8 -6 -15 -13 -15 -8 0 -14 7 -14 15 0 8 6 15 14 15 7 0 13 -7 13 -15z
m372 0 c0 -5 -5 -11 -11 -13 -6 -2 -11 4 -11 13 0 9 5 15 11 13 6 -2 11 -8 11
-13z m76 -2 c-4 -21 -28 -30 -28 -10 0 9 -6 18 -12 20 -7 3 0 6 15 6 21 1 28
-3 25 -16z m-41 -25 c-3 -8 -6 -5 -6 6 -1 11 2 17 5 13 3 -3 4 -12 1 -19z
m266 -35 c-7 -2 -19 -2 -25 0 -7 3 -2 5 12 5 14 0 19 -2 13 -5z"/>
<path d="M1660 4370 c0 -5 5 -10 10 -10 6 0 10 5 10 10 0 6 -4 10 -10 10 -5 0
-10 -4 -10 -10z"/>
<path d="M2225 4370 c-3 -5 -1 -10 4 -10 6 0 11 5 11 10 0 6 -2 10 -4 10 -3 0
-8 -4 -11 -10z"/>
<path d="M5033 4363 c9 -2 25 -2 35 0 9 3 1 5 -18 5 -19 0 -27 -2 -17 -5z"/>
<path d="M6925 4360 c-3 -5 -1 -10 4 -10 6 0 11 5 11 10 0 6 -2 10 -4 10 -3 0
-8 -4 -11 -10z"/>
<path d="M6965 4360 c-3 -5 -1 -10 4 -10 6 0 11 5 11 10 0 6 -2 10 -4 10 -3 0
-8 -4 -11 -10z"/>
<path d="M6066 4331 c-3 -5 1 -11 9 -14 9 -4 12 -1 8 9 -6 16 -10 17 -17 5z"/>
<path d="M6855 4329 c-16 -5 -63 -8 -104 -7 l-73 3 -19 -37 c-11 -21 -28 -42
-39 -48 -11 -6 -20 -14 -20 -19 0 -10 109 5 185 26 41 11 92 15 161 14 83 -2
104 0 117 14 10 9 17 20 17 25 0 17 -13 40 -22 40 -6 0 -5 -7 3 -16 10 -13 10
-17 -2 -25 -8 -5 -23 -7 -34 -4 -11 2 -51 5 -88 5 -65 0 -67 1 -57 20 6 11 9
20 8 19 -2 0 -16 -5 -33 -10z"/>
<path d="M6993 4333 c9 -2 25 -2 35 0 9 3 1 5 -18 5 -19 0 -27 -2 -17 -5z"/>
<path d="M5013 4253 c9 -2 25 -2 35 0 9 3 1 5 -18 5 -19 0 -27 -2 -17 -5z"/>
<path d="M1265 4140 c-100 -8 -150 -17 -257 -47 l-58 -16 0 -163 c0 -90 3
-164 8 -164 4 0 61 -11 127 -24 209 -42 328 -47 850 -38 321 5 487 11 500 19
11 6 63 19 115 28 125 23 212 50 280 87 30 16 44 27 30 23 -14 -3 -29 -6 -35
-6 -5 0 -37 0 -70 1 -33 1 -105 -2 -160 -5 -180 -12 -160 -19 -163 48 l-3 57
-97 0 c-55 0 -123 -7 -155 -15 -70 -18 -91 -19 -81 -3 4 6 3 8 -3 5 -5 -3 -33
0 -61 7 -28 8 -53 11 -56 8 -3 -3 -6 -1 -6 4 0 5 -13 10 -30 10 -44 2 -60 11
-60 34 0 20 5 22 60 24 14 1 37 9 51 18 32 20 145 25 244 10 39 -6 98 -15 133
-20 l62 -8 0 59 0 60 -405 -7 c-365 -7 -405 -6 -405 8 0 14 -18 16 -127 15
-71 -1 -173 -5 -228 -9z"/>
<path d="M3838 3993 c7 -3 16 -2 19 1 4 3 -2 6 -13 5 -11 0 -14 -3 -6 -6z"/>
<path d="M3888 3993 c7 -3 16 -2 19 1 4 3 -2 6 -13 5 -11 0 -14 -3 -6 -6z"/>
<path d="M3928 3993 c7 -3 16 -2 19 1 4 3 -2 6 -13 5 -11 0 -14 -3 -6 -6z"/>
<path d="M4161 3944 c0 -11 3 -14 6 -6 3 7 2 16 -1 19 -3 4 -6 -2 -5 -13z"/>
<path d="M4161 3854 c0 -11 3 -14 6 -6 3 7 2 16 -1 19 -3 4 -6 -2 -5 -13z"/>
<path d="M4048 3653 c7 -3 16 -2 19 1 4 3 -2 6 -13 5 -11 0 -14 -3 -6 -6z"/>
<path d="M4186 3632 l-19 -27 24 22 c12 12 21 24 18 27 -2 2 -13 -8 -23 -22z"/>
<path d="M4256 3650 c7 -7 46 -16 88 -22 41 -6 73 -15 70 -20 -4 -5 4 -4 15 4
20 12 13 14 -64 25 -47 6 -93 14 -103 18 -13 5 -14 3 -6 -5z"/>
<path d="M4510 3643 c-19 -3 -38 -8 -43 -12 -4 -4 20 -4 53 0 34 4 64 10 67
13 7 6 -16 6 -77 -1z"/>
<path d="M5698 3584 c-23 -23 -35 -27 -95 -28 -57 -1 -77 -6 -110 -28 -46 -30
-83 -96 -83 -147 0 -22 -8 -39 -27 -56 l-28 -24 32 -1 c25 0 43 -11 77 -44 34
-35 55 -46 98 -55 46 -10 59 -9 88 5 44 21 88 61 106 96 28 53 12 163 -28 196
-14 11 -14 19 -3 62 7 28 10 50 6 50 -3 0 -18 -12 -33 -26z m-2 -51 c-10 -10
-19 5 -10 18 6 11 8 11 12 0 2 -7 1 -15 -2 -18z m-74 9 c14 -6 -5 -25 -84 -91
-56 -46 -104 -78 -106 -72 -2 7 -1 27 2 44 15 78 121 145 188 119z m57 -21 c9
-6 4 -10 -18 -13 -24 -4 -28 -2 -20 9 13 15 19 16 38 4z m1 -51 c0 -26 16 -26
23 1 8 29 22 17 42 -36 20 -50 15 -93 -15 -143 -17 -28 -73 -72 -91 -72 -4 0
4 37 17 83 27 94 27 97 14 97 -5 0 -14 -18 -20 -40 -15 -57 -43 -55 -34 2 9
51 -11 45 -20 -7 -6 -32 -10 -35 -42 -35 -48 0 -52 21 -17 78 43 70 143 120
143 72z m-233 -129 c0 -11 -5 -18 -9 -15 -4 3 -5 11 -1 19 7 21 12 19 10 -4z
m102 -81 c30 -38 31 -40 10 -40 -27 0 -86 36 -99 61 -10 17 -7 19 23 19 27 0
40 -8 66 -40z m76 3 c-4 -21 -9 -40 -12 -43 -5 -5 -62 60 -63 73 0 4 19 7 41
7 l41 0 -7 -37z"/>
<path d="M4129 3563 c-13 -16 -12 -17 4 -4 9 7 17 15 17 17 0 8 -8 3 -21 -13z"/>
<path d="M1418 3543 c15 -12 42 -27 60 -33 17 -7 32 -15 32 -19 0 -7 -543
-271 -559 -271 -12 0 -19 -46 -25 -165 -4 -74 -3 -92 4 -69 6 19 19 35 32 39
44 14 53 16 68 19 8 2 24 7 35 11 82 30 141 40 150 25 5 -8 14 -6 30 4 17 11
55 16 128 18 60 2 102 7 99 12 -3 5 5 6 19 3 14 -4 83 8 168 29 79 19 150 33
159 29 10 -4 72 54 196 180 l181 185 141 0 141 0 -14 -61 c-8 -34 -12 -63 -11
-65 2 -2 85 24 183 57 99 34 187 61 195 61 8 1 17 4 20 8 3 4 23 12 45 18 31
8 -46 11 -323 9 -200 -1 -365 -4 -367 -7 -2 -3 -186 -3 -409 0 l-405 5 27 -22z
m670 0 c-21 -2 -57 -2 -80 0 -24 2 -7 4 37 4 44 0 63 -2 43 -4z"/>
<path d="M4079 3503 l-24 -28 28 24 c25 23 32 31 24 31 -2 0 -14 -12 -28 -27z"/>
<path d="M8150 3480 c0 -6 -9 -10 -20 -10 -11 0 -20 -7 -20 -15 0 -8 4 -15 10
-15 5 0 7 -6 4 -14 -4 -11 4 -16 33 -19 32 -3 29 -4 -15 -5 -70 -3 -66 -26 4
-30 27 -2 53 -7 57 -11 4 -4 -17 -6 -48 -3 l-56 5 5 -37 c2 -20 0 -36 -4 -36
-5 0 -7 -6 -4 -14 6 -15 94 -18 94 -3 0 5 6 5 13 0 22 -14 105 -13 111 2 2 7
-4 15 -17 19 -20 5 -21 6 -2 26 23 25 13 37 -35 43 -33 4 -33 4 8 5 30 2 42 6
42 17 0 11 -12 15 -42 17 -37 1 -39 2 -10 5 17 2 32 8 32 13 0 5 -15 11 -32
13 -32 4 -32 4 5 5 25 2 37 7 37 17 0 11 -12 15 -49 15 -27 0 -61 4 -75 10
-17 6 -26 6 -26 0z m73 -171 c-5 -19 -23 -25 -36 -13 -3 4 -2 15 4 25 12 24
38 14 32 -12z m-73 11 c0 -5 -2 -10 -4 -10 -3 0 -8 5 -11 10 -3 6 -1 10 4 10
6 0 11 -4 11 -10z"/>
<path d="M6000 3460 c0 -17 -7 -20 -40 -20 l-40 0 0 -61 0 -61 40 7 40 7 0
-36 c0 -29 4 -36 20 -36 16 0 20 7 20 36 l0 36 45 -6 45 -7 0 60 0 61 -45 0
c-38 0 -45 3 -45 20 0 13 -7 20 -20 20 -13 0 -20 -7 -20 -20z m0 -70 c0 -13
-7 -20 -20 -20 -13 0 -20 7 -20 20 0 13 7 20 20 20 13 0 20 -7 20 -20z m90 0
c0 -15 -7 -20 -25 -20 -18 0 -25 5 -25 20 0 15 7 20 25 20 18 0 25 -5 25 -20z"/>
<path d="M6180 3370 c0 -103 1 -110 20 -110 11 0 20 5 20 10 0 6 30 10 70 10
40 0 70 -4 70 -10 0 -5 6 -10 14 -10 12 0 15 22 18 106 2 58 1 108 -1 110 -2
2 -51 4 -108 4 l-103 0 0 -110z m71 40 c10 0 19 -5 19 -10 0 -6 -7 -10 -16 -8
-10 2 -19 -3 -21 -9 -3 -8 4 -13 16 -13 29 0 26 -17 -4 -22 -24 -5 -25 -3 -24
46 1 28 3 43 6 34 2 -10 13 -18 24 -18z m62 23 c-13 -2 -35 -2 -50 0 -16 2 -5
4 22 4 28 0 40 -2 28 -4z m47 -58 l0 -65 -70 0 c-38 0 -70 3 -70 8 0 4 30 5
66 4 66 -4 67 -3 61 20 -4 12 -7 31 -7 40 0 11 -5 15 -14 12 -8 -3 -17 -1 -21
5 -4 7 4 11 20 11 20 0 26 4 21 15 -3 8 -1 15 4 15 6 0 10 -29 10 -65z"/>
<path d="M6490 3470 c0 -5 -11 -10 -25 -10 -16 0 -25 -6 -25 -15 0 -9 9 -15
24 -15 14 0 28 -5 31 -10 4 -6 11 -8 16 -5 5 4 9 1 9 -6 0 -7 -11 -10 -31 -7
-28 4 -30 3 -26 -21 3 -15 -1 -33 -10 -43 -15 -16 -11 -38 7 -38 5 0 17 12 26
26 15 22 15 27 3 35 -11 7 -9 9 9 9 12 0 22 -3 22 -7 0 -19 -41 -73 -55 -73
-8 0 -15 -3 -15 -7 1 -52 73 -14 91 47 15 50 39 54 39 5 0 -24 -5 -35 -14 -35
-20 0 -27 -13 -16 -30 15 -25 58 3 63 42 4 30 5 31 12 10 5 -15 13 -21 22 -18
8 3 17 6 19 6 3 0 -2 13 -11 30 -9 18 -21 27 -29 24 -11 -4 -13 0 -9 15 5 18
1 21 -26 21 -17 0 -31 4 -31 9 0 5 -8 12 -17 14 -14 4 -12 5 5 6 12 0 22 -3
22 -9 0 -5 7 -10 15 -10 8 0 15 5 15 10 0 6 14 10 30 10 20 0 30 5 30 15 0 10
-10 15 -30 15 -16 0 -30 5 -30 10 0 6 -7 10 -15 10 -8 0 -15 -4 -15 -10 0 -5
-9 -10 -20 -10 -11 0 -20 5 -20 10 0 6 -9 10 -20 10 -11 0 -20 -4 -20 -10z"/>
<path d="M7590 3435 c0 -25 -4 -45 -10 -45 -6 0 -10 -28 -10 -65 0 -50 3 -65
14 -65 8 0 17 4 20 9 3 5 15 7 27 4 12 -4 25 0 30 8 7 11 9 11 9 1 0 -10 5
-10 21 -2 16 9 24 8 38 -4 24 -22 38 -20 52 5 8 16 8 24 -1 33 -9 8 -14 8 -17
-2 -3 -6 -9 -10 -14 -6 -5 3 -1 17 9 32 20 28 28 92 12 92 -5 0 -7 6 -4 14 7
17 -11 29 -48 33 -25 3 -28 0 -28 -27 0 -17 -4 -30 -10 -30 -5 0 -10 7 -10 15
0 8 -9 15 -20 15 -11 0 -20 7 -20 15 0 8 -9 15 -20 15 -17 0 -20 -7 -20 -45z
m150 4 c0 -5 -4 -9 -10 -9 -5 0 -10 7 -10 16 0 8 5 12 10 9 6 -3 10 -10 10
-16z m-73 -39 c3 -11 9 -18 13 -15 4 3 10 -10 14 -27 4 -21 2 -34 -6 -40 -23
-14 -28 -9 -28 32 0 29 -4 40 -15 40 -8 0 -15 7 -15 15 0 22 31 18 37 -5z m74
-27 c-8 -15 -10 -15 -11 -2 0 17 10 32 18 25 2 -3 -1 -13 -7 -23z m-111 -43
c0 -11 -7 -20 -15 -20 -8 0 -15 9 -15 20 0 11 7 20 15 20 8 0 15 -9 15 -20z"/>
<path d="M7887 3466 c-4 -9 5 -21 19 -31 22 -14 25 -14 30 0 4 9 -1 22 -12 30
-24 18 -31 18 -37 1z"/>
<path d="M7950 3425 c0 -48 -2 -55 -20 -55 -13 0 -17 5 -14 14 8 20 -35 43
-47 25 -10 -16 -2 -29 17 -29 8 0 14 -4 14 -10 0 -5 -13 -10 -30 -10 -22 0
-30 -5 -30 -18 0 -16 6 -17 55 -12 l55 6 0 -38 c0 -32 3 -38 21 -38 19 0 21 5
17 39 -3 36 -1 40 24 45 36 7 38 36 3 36 -21 0 -25 5 -26 33 -1 17 -1 40 0 50
2 11 -5 17 -18 17 -19 0 -21 -6 -21 -55z"/>
<path d="M8390 3460 c0 -11 -7 -20 -15 -20 -8 0 -15 -9 -15 -19 0 -11 -3 -26
-6 -35 -4 -10 -1 -16 9 -16 9 0 18 8 20 18 3 11 5 9 6 -8 0 -14 -7 -42 -18
-63 -15 -30 -16 -39 -5 -47 10 -9 17 -5 30 15 13 20 19 23 31 14 11 -9 17 -9
26 0 9 10 7 16 -10 31 -23 18 -31 64 -14 74 5 3 15 -1 22 -10 12 -14 14 -14
27 3 12 16 13 8 10 -60 -3 -68 -1 -77 15 -77 11 0 17 8 17 25 0 20 5 25 25 25
18 0 25 5 25 20 0 17 -5 19 -25 14 -15 -4 -25 -2 -25 5 0 6 11 11 25 11 18 0
25 5 25 20 0 15 -7 20 -25 20 -14 0 -25 5 -25 10 0 6 13 8 30 5 25 -4 30 -2
30 15 0 17 -7 20 -40 20 -26 0 -39 4 -37 12 1 6 -5 13 -14 15 -11 3 -19 -5
-23 -23 -5 -20 -10 -24 -16 -15 -4 8 -13 10 -19 7 -7 -5 -11 1 -11 13 0 12 -7
21 -15 21 -8 0 -15 -9 -15 -20z"/>
<path d="M8650 3460 c0 -11 -7 -20 -15 -20 -8 0 -15 -9 -15 -20 0 -12 7 -20
16 -20 14 0 13 -5 -4 -34 -16 -28 -18 -37 -8 -45 7 -6 16 -8 19 -4 4 3 7 -8 7
-25 0 -29 2 -31 38 -29 31 2 40 8 54 37 11 22 18 58 18 95 0 91 19 54 22 -45
3 -75 5 -85 22 -88 20 -4 46 21 46 45 0 17 -27 17 -33 1 -3 -7 -6 29 -6 80
l-1 92 -44 0 -44 0 5 -67 6 -68 -24 25 c-16 16 -20 26 -11 28 17 5 15 42 -3
42 -8 0 -15 9 -15 20 0 11 -7 20 -15 20 -8 0 -15 -9 -15 -20z m70 -134 c0 -14
-20 -36 -32 -36 -4 0 -8 10 -8 23 0 16 6 23 20 24 11 1 20 -4 20 -11z"/>
<path d="M4034 3448 l-19 -23 23 19 c12 11 22 21 22 23 0 8 -8 2 -26 -19z"/>
<path d="M6792 3458 c-22 -22 -14 -48 13 -48 16 0 25 6 25 15 0 8 5 15 10 15
16 0 12 -40 -5 -46 -8 -4 -15 -12 -15 -20 0 -8 7 -14 15 -14 10 0 15 -10 15
-30 0 -16 -4 -30 -10 -30 -5 0 -10 11 -10 25 0 20 -5 25 -25 25 -19 0 -25 -5
-25 -21 0 -41 18 -59 60 -59 29 0 42 5 50 19 13 25 13 78 0 86 -6 4 -5 13 2
25 9 14 9 25 0 44 -9 21 -18 26 -50 26 -21 0 -43 -5 -50 -12z"/>
<path d="M6942 3458 c-7 -7 -12 -42 -12 -88 0 -85 8 -100 55 -100 47 0 55 15
55 100 0 85 -8 100 -55 100 -17 0 -36 -5 -43 -12z m45 -125 c-2 -21 -4 -4 -4
37 0 41 2 58 4 38 2 -21 2 -55 0 -75z"/>
<path d="M7080 3465 c-1 -3 -1 -47 -1 -97 -1 -87 1 -93 20 -96 19 -3 21 2 22
50 1 54 3 52 14 -14 3 -23 11 -38 20 -38 9 0 17 15 20 38 11 66 13 68 14 14 1
-49 3 -53 23 -50 21 3 23 9 26 101 l4 98 -39 -3 c-36 -3 -38 -5 -44 -43 -4
-28 -7 -32 -8 -13 -2 45 -11 58 -42 58 -16 0 -29 -2 -29 -5z"/>
<path d="M7270 3370 l0 -100 25 0 c22 0 25 4 26 38 l1 37 10 -37 c8 -31 15
-38 34 -38 28 0 28 2 10 64 -13 41 -13 53 0 88 18 51 18 48 -10 48 -17 0 -26
-8 -34 -32 l-10 -33 -1 33 c-1 27 -5 32 -26 32 l-25 0 0 -100z"/>
<path d="M7418 3463 c-2 -5 -4 -48 -3 -98 l0 -90 28 -3 c24 -3 27 0 28 30 l1
33 7 -30 c5 -23 12 -31 34 -33 15 -2 27 -2 27 1 0 2 -7 27 -16 56 -14 47 -14
57 0 97 15 44 15 44 -9 44 -16 0 -26 -8 -33 -27 l-10 -28 -1 28 c-1 22 -6 27
-25 27 -14 0 -26 -3 -28 -7z"/>
<path d="M3994 3398 l-19 -23 23 19 c12 11 22 21 22 23 0 8 -8 2 -26 -19z"/>
<path d="M2780 3399 c0 -5 5 -7 10 -4 6 3 10 8 10 11 0 2 -4 4 -10 4 -5 0 -10
-5 -10 -11z"/>
<path d="M6690 3355 c0 -10 11 -15 35 -15 24 0 35 5 35 15 0 10 -11 15 -35 15
-24 0 -35 -5 -35 -15z"/>
<path d="M3939 3333 l-24 -28 28 24 c25 23 32 31 24 31 -2 0 -14 -12 -28 -27z"/>
<path d="M3460 3299 c0 -24 23 -21 28 4 2 10 -3 17 -12 17 -10 0 -16 -9 -16
-21z"/>
<path d="M3889 3273 l-24 -28 28 24 c25 23 32 31 24 31 -2 0 -14 -12 -28 -27z"/>
<path d="M3844 3218 l-19 -23 23 19 c12 11 22 21 22 23 0 8 -8 2 -26 -19z"/>
<path d="M2545 3221 c-3 -5 -2 -12 3 -15 5 -3 9 1 9 9 0 17 -3 19 -12 6z"/>
<path d="M3794 3158 l-19 -23 23 19 c21 18 27 26 19 26 -2 0 -12 -10 -23 -22z"/>
<path d="M3886 3123 c-6 -14 -5 -15 5 -6 7 7 10 15 7 18 -3 3 -9 -2 -12 -12z"/>
<path d="M5924 3116 c-3 -8 -4 -31 -2 -52 2 -31 7 -40 25 -42 22 -3 49 29 36
42 -11 11 -23 6 -23 -9 0 -8 -4 -15 -9 -15 -5 0 -9 16 -9 35 0 19 4 38 9 41 5
3 9 -2 9 -10 0 -9 7 -16 16 -16 11 0 14 5 10 16 -3 9 -6 18 -6 20 0 11 -51 2
-56 -10z"/>
<path d="M6010 3075 c0 -30 5 -55 10 -55 6 0 10 11 10 25 0 14 5 25 10 25 6 0
10 -11 10 -25 0 -14 5 -25 10 -25 6 0 10 25 10 55 0 30 -4 55 -10 55 -5 0 -10
-9 -10 -20 0 -11 -4 -20 -10 -20 -5 0 -10 9 -10 20 0 11 -4 20 -10 20 -5 0
-10 -25 -10 -55z"/>
<path d="M6094 3075 c-1 -40 3 -55 13 -55 9 0 13 16 13 55 0 37 -4 55 -12 55
-9 0 -13 -18 -14 -55z"/>
<path d="M6149 3120 c-4 -54 0 -95 9 -98 7 -2 12 7 13 20 l0 23 9 -22 c16 -40
30 -25 30 32 0 30 -4 55 -10 55 -5 0 -10 -10 -11 -22 l0 -23 -11 23 c-11 23
-27 30 -29 12z"/>
<path d="M6230 3075 c0 -52 1 -55 25 -55 14 0 25 5 25 10 0 6 -4 10 -10 10
-14 0 -12 27 3 33 9 4 8 8 -3 17 -11 9 -12 13 -2 17 21 8 13 23 -13 23 -24 0
-25 -3 -25 -55z"/>
<path d="M6307 3123 c-13 -13 -7 -38 13 -51 11 -7 20 -18 19 -25 0 -9 -2 -9
-6 1 -7 19 -35 15 -31 -5 4 -24 53 -30 62 -8 7 18 -9 55 -24 55 -6 0 -10 8 -9
18 0 10 3 12 6 5 7 -18 23 -16 23 2 0 15 -40 21 -53 8z"/>
<path d="M6390 3075 c0 -48 3 -55 19 -55 11 0 23 5 26 10 3 6 -1 10 -9 10 -19
0 -21 26 -3 33 9 4 8 8 -3 17 -11 9 -12 13 -2 17 19 8 14 23 -8 23 -18 0 -20
-7 -20 -55z"/>
<path d="M6493 3114 c-3 -8 4 -25 17 -39 13 -14 20 -28 17 -32 -4 -3 -7 -1 -7
5 0 7 -7 12 -15 12 -17 0 -19 -9 -6 -28 4 -8 19 -12 32 -10 32 4 38 42 10 60
-12 7 -21 20 -20 28 0 10 2 11 6 3 2 -7 11 -13 19 -13 8 0 11 6 8 15 -8 20
-53 19 -61 -1z"/>
<path d="M6582 3078 c3 -49 5 -53 28 -53 23 0 25 4 28 53 2 31 -1 52 -7 52 -6
0 -11 -20 -11 -45 0 -25 -4 -45 -10 -45 -5 0 -10 20 -10 45 0 25 -5 45 -11 45
-6 0 -9 -21 -7 -52z"/>
<path d="M6670 3075 c0 -30 5 -55 10 -55 6 0 10 10 11 23 l0 22 11 -22 c18
-37 26 -27 24 32 -1 57 -8 67 -25 38 -10 -17 -10 -17 -11 0 0 9 -4 17 -10 17
-5 0 -10 -25 -10 -55z"/>
<path d="M6754 3075 c-1 -38 3 -55 12 -55 7 0 15 10 17 23 l4 22 2 -22 c0 -13
8 -23 16 -23 12 0 15 13 15 55 0 55 -15 75 -23 33 l-4 -23 -8 23 c-14 42 -31
24 -31 -33z"/>
<path d="M6847 3124 c-9 -9 -9 -66 -1 -88 3 -9 17 -16 30 -16 26 0 38 27 32
76 -2 23 -9 30 -28 32 -14 2 -29 0 -33 -4z m30 -66 c-2 -13 -4 -3 -4 22 0 25
2 35 4 23 2 -13 2 -33 0 -45z"/>
<path d="M6930 3075 c0 -42 3 -55 15 -55 12 0 15 13 15 55 0 42 -3 55 -15 55
-12 0 -15 -13 -15 -55z"/>
<path d="M7020 3106 c0 -13 10 -30 23 -39 12 -8 18 -19 14 -23 -4 -5 -12 -2
-17 6 -11 18 -24 6 -16 -15 3 -10 15 -15 28 -13 31 4 37 45 9 65 -12 8 -21 19
-21 26 0 8 3 8 12 -1 16 -16 28 -15 28 3 0 10 -10 15 -30 15 -25 0 -30 -4 -30
-24z"/>
<path d="M7102 3084 c3 -50 22 -72 52 -61 22 9 24 107 2 107 -11 0 -16 -14
-19 -47 l-3 -48 -2 48 c-2 35 -6 47 -17 47 -13 0 -15 -10 -13 -46z"/>
<path d="M7246 3121 c-4 -5 -1 -13 5 -17 6 -3 15 -1 19 5 4 7 7 -10 7 -36 1
-37 -1 -43 -8 -25 -11 29 -19 28 -19 -4 0 -22 4 -25 28 -22 25 3 27 6 27 53 0
47 -2 50 -27 53 -14 2 -29 -1 -32 -7z"/>
<path d="M7337 3123 c-4 -3 -7 -26 -7 -50 0 -47 19 -65 49 -46 35 22 25 103
-13 103 -12 0 -26 -3 -29 -7z m30 -70 c-2 -16 -4 -5 -4 22 0 28 2 40 4 28 2
-13 2 -35 0 -50z"/>
<path d="M7420 3075 c0 -59 16 -75 23 -22 l4 32 1 -32 c2 -39 22 -45 22 -6 0
28 10 26 14 -3 2 -10 8 -20 14 -22 8 -2 12 14 12 52 0 49 -2 56 -20 56 -14 0
-20 -7 -21 -22 l0 -23 -9 23 c-5 12 -16 22 -25 22 -12 0 -15 -12 -15 -55z"/>
<path d="M7530 3075 c0 -41 4 -55 14 -55 8 0 17 8 19 18 4 16 5 16 6 0 0 -10
8 -18 16 -18 18 0 18 -1 4 38 -7 22 -7 36 1 51 8 17 8 21 -4 21 -8 0 -17 -8
-19 -17 -4 -17 -5 -17 -6 0 0 9 -8 17 -16 17 -12 0 -15 -13 -15 -55z"/>
<path d="M7620 3074 c0 -40 3 -54 13 -51 6 2 11 12 9 22 -2 10 1 14 7 10 6 -3
11 -13 11 -21 0 -8 7 -14 15 -14 12 0 13 5 4 27 -5 14 -7 39 -4 55 7 32 -1 36
-22 11 -14 -17 -14 -17 -9 0 3 11 0 17 -9 17 -11 0 -15 -13 -15 -56z"/>
<path d="M7746 3078 c0 -30 5 -53 12 -56 7 -2 12 7 12 21 0 14 6 28 13 30 9 4
8 8 -3 17 -11 9 -12 13 -2 17 20 8 14 23 -11 23 -20 0 -22 -5 -21 -52z"/>
<path d="M7810 3075 c0 -42 3 -55 15 -55 12 0 15 13 15 55 0 42 -3 55 -15 55
-12 0 -15 -13 -15 -55z"/>
<path d="M7867 3124 c-9 -9 -9 -66 -1 -88 4 -10 18 -16 35 -16 26 0 29 4 29
30 0 23 -4 30 -20 30 -14 0 -20 6 -19 23 1 16 2 18 6 5 2 -10 11 -18 19 -18 9
0 14 7 12 18 -3 17 -48 29 -61 16z m30 -76 c-3 -8 -6 -5 -6 6 -1 11 2 17 5 13
3 -3 4 -12 1 -19z"/>
<path d="M7950 3075 c0 -41 4 -55 14 -55 8 0 17 12 19 28 l4 27 2 -27 c0 -18
7 -28 16 -28 12 0 15 13 15 55 0 41 -4 55 -14 55 -8 0 -17 -10 -19 -22 l-4
-23 -2 23 c0 12 -8 22 -16 22 -12 0 -15 -13 -15 -55z"/>
<path d="M8044 3114 c3 -9 6 -33 6 -55 0 -28 4 -39 15 -39 11 0 15 12 15 45 0
25 5 45 10 45 6 0 10 5 10 10 0 6 -14 10 -31 10 -24 0 -30 -3 -25 -16z"/>
<path d="M8120 3075 c0 -52 1 -55 25 -55 14 0 25 5 25 10 0 6 -4 10 -10 10
-14 0 -12 27 3 33 9 4 8 8 -3 17 -11 9 -12 13 -2 17 21 8 13 23 -13 23 -24 0
-25 -3 -25 -55z"/>
<path d="M8190 3076 c0 -42 4 -56 14 -56 10 0 13 8 10 25 -2 14 0 25 6 25 5 0
10 -11 10 -25 0 -14 5 -25 11 -25 6 0 9 21 7 53 -3 48 -5 52 -30 55 -28 3 -28
2 -28 -52z m40 24 c0 -5 -2 -10 -4 -10 -3 0 -8 5 -11 10 -3 6 -1 10 4 10 6 0
11 -4 11 -10z"/>
<path d="M8330 3075 c0 -54 0 -55 29 -55 38 0 42 8 35 64 -6 42 -9 46 -35 46
-28 0 -29 -1 -29 -55z m37 23 c-3 -8 -6 -5 -6 6 -1 11 2 17 5 13 3 -3 4 -12 1
-19z m3 -43 c0 -8 -4 -15 -10 -15 -5 0 -7 7 -4 15 4 8 8 15 10 15 2 0 4 -7 4
-15z"/>
<path d="M8424 3116 c-3 -8 -4 -31 -2 -52 3 -34 6 -39 28 -39 23 0 25 4 28 53
3 50 2 52 -23 52 -14 0 -28 -6 -31 -14z m36 -36 c0 -22 -4 -40 -10 -40 -5 0
-10 18 -10 40 0 22 5 40 10 40 6 0 10 -18 10 -40z"/>
<path d="M8510 3075 c0 -57 16 -76 23 -27 l4 27 2 -27 c0 -16 5 -28 10 -28 5
0 12 12 14 28 l4 27 2 -27 c2 -50 19 -30 23 27 3 47 0 55 -14 55 -10 0 -18 -7
-18 -15 0 -8 -4 -15 -10 -15 -5 0 -10 7 -10 15 0 8 -7 15 -15 15 -12 0 -15
-13 -15 -55z"/>
<path d="M8620 3076 c0 -56 0 -56 30 -56 30 0 30 0 28 53 -3 49 -5 52 -30 55
-28 3 -28 2 -28 -52z m40 24 c0 -5 -4 -10 -10 -10 -5 0 -10 5 -10 10 0 6 5 10
10 10 6 0 10 -4 10 -10z m0 -45 c0 -8 -4 -15 -10 -15 -5 0 -10 7 -10 15 0 8 5
15 10 15 6 0 10 -7 10 -15z"/>
<path d="M8708 3092 c-1 -21 -2 -45 0 -55 4 -18 37 -23 47 -7 3 6 -1 10 -9 10
-19 0 -21 26 -3 33 9 4 8 8 -3 17 -11 9 -12 13 -2 17 19 7 14 23 -7 23 -15 0
-20 -9 -23 -38z"/>
<path d="M8780 3076 c0 -31 5 -56 10 -56 6 0 10 12 10 26 0 15 4 23 10 19 6
-4 9 -14 8 -22 -2 -9 3 -18 9 -20 9 -3 12 10 10 49 -2 50 -4 53 -30 56 -27 3
-27 2 -27 -52z m40 30 c0 -3 -4 -8 -10 -11 -5 -3 -10 -1 -10 4 0 6 5 11 10 11
6 0 10 -2 10 -4z"/>
<path d="M3744 3098 l-19 -23 23 19 c21 18 27 26 19 26 -2 0 -12 -10 -23 -22z"/>
<path d="M4209 3085 c-4 -35 -8 -40 -36 -46 -24 -5 -33 -3 -35 9 -2 12 -21 14
-103 13 -86 -2 -103 -5 -122 -23 -13 -12 -23 -25 -23 -30 0 -11 372 -10 446 2
34 6 88 18 120 28 l59 18 -142 0 c-91 0 -144 -4 -145 -11 0 -5 -4 10 -8 35
l-6 45 -5 -40z"/>
<path d="M3855 3090 c-3 -5 -1 -10 4 -10 6 0 11 5 11 10 0 6 -2 10 -4 10 -3 0
-8 -4 -11 -10z"/>
<path d="M7190 3070 c0 -5 7 -10 16 -10 8 0 12 5 9 10 -3 6 -10 10 -16 10 -5
0 -9 -4 -9 -10z"/>
<path d="M8280 3070 c-12 -8 -10 -10 8 -10 13 0 20 4 17 10 -7 12 -6 12 -25 0z"/>
<path d="M3704 3048 l-19 -23 23 19 c12 11 22 21 22 23 0 8 -8 2 -26 -19z"/>
<path d="M3654 2988 l-19 -23 23 19 c21 18 27 26 19 26 -2 0 -12 -10 -23 -22z"/>
<path d="M3604 2928 l-19 -23 23 19 c12 11 22 21 22 23 0 8 -8 2 -26 -19z"/>
<path d="M1554 2898 l-29 -33 33 29 c30 28 37 36 29 36 -2 0 -16 -15 -33 -32z"/>
<path d="M3559 2873 c-13 -16 -12 -17 4 -4 16 13 21 21 13 21 -2 0 -10 -8 -17
-17z"/>
<path d="M3509 2813 c-13 -16 -12 -17 4 -4 9 7 17 15 17 17 0 8 -8 3 -21 -13z"/>
<path d="M3459 2753 l-24 -28 28 24 c25 23 32 31 24 31 -2 0 -14 -12 -28 -27z"/>
<path d="M3414 2698 l-19 -23 23 19 c12 11 22 21 22 23 0 8 -8 2 -26 -19z"/>
<path d="M3572 2659 l-13 -21 183 4 c101 3 194 9 207 14 17 8 -18 9 -118 6
-98 -3 -146 -1 -154 7 -6 6 -29 11 -52 11 -30 0 -43 -5 -53 -21z"/>
<path d="M3354 2628 l-19 -23 23 19 c12 11 22 21 22 23 0 8 -8 2 -26 -19z"/>
<path d="M2774 2526 c-28 -55 -36 -78 -28 -86 22 -22 64 11 96 73 16 32 28 60
26 62 -6 5 -47 25 -51 25 -2 0 -21 -34 -43 -74z"/>
<path d="M3314 2578 l-19 -23 23 19 c12 11 22 21 22 23 0 8 -8 2 -26 -19z"/>
<path d="M3269 2523 c-13 -16 -12 -17 4 -4 16 13 21 21 13 21 -2 0 -10 -8 -17
-17z"/>
<path d="M3365 2520 c-3 -5 -1 -10 4 -10 6 0 11 5 11 10 0 6 -2 10 -4 10 -3 0
-8 -4 -11 -10z"/>
<path d="M3341 2494 c0 -11 3 -14 6 -6 3 7 2 16 -1 19 -3 4 -6 -2 -5 -13z"/>
<path d="M3219 2463 c-13 -16 -12 -17 4 -4 9 7 17 15 17 17 0 8 -8 3 -21 -13z"/>
<path d="M2713 2420 c4 -14 7 -29 7 -33 0 -5 4 -5 10 -2 6 4 7 -1 3 -11 -5
-14 -2 -16 15 -12 12 4 20 2 16 -3 -8 -14 -32 -11 -42 6 -5 10 -15 13 -25 9
-24 -9 -21 -22 5 -26 14 -2 24 -12 28 -28 l6 -25 13 23 c9 18 19 23 37 19 28
-5 30 0 8 24 -12 14 -13 22 -4 38 11 22 4 27 -20 11 -10 -6 -22 -3 -39 13
l-24 22 6 -25z"/>
<path d="M3164 2398 l-19 -23 23 19 c12 11 22 21 22 23 0 8 -8 2 -26 -19z"/>
<path d="M3124 2348 l-19 -23 23 19 c12 11 22 21 22 23 0 8 -8 2 -26 -19z"/>
<path d="M2634 2259 c-34 -69 -35 -73 -18 -86 29 -21 37 -16 67 40 32 58 34
110 5 115 -12 2 -27 -16 -54 -69z"/>
<path d="M3069 2283 c-13 -16 -12 -17 4 -4 9 7 17 15 17 17 0 8 -8 3 -21 -13z"/>
<path d="M3034 2238 l-19 -23 23 19 c21 18 27 26 19 26 -2 0 -12 -10 -23 -22z"/>
<path d="M8665 2230 c-3 -5 -1 -10 4 -10 6 0 11 5 11 10 0 6 -2 10 -4 10 -3 0
-8 -4 -11 -10z"/>
<path d="M2979 2173 l-24 -28 28 24 c25 23 32 31 24 31 -2 0 -14 -12 -28 -27z"/>
<path d="M2929 2113 c-13 -16 -12 -17 4 -4 9 7 17 15 17 17 0 8 -8 3 -21 -13z"/>
<path d="M3330 2123 c0 -5 -10 -15 -22 -21 -13 -6 -18 -11 -12 -11 16 -1 50
27 41 35 -4 4 -7 3 -7 -3z"/>
<path d="M3069 2103 c-13 -15 -9 -16 54 -10 100 9 120 26 31 27 -55 0 -75 -4
-85 -17z"/>
<path d="M8598 2113 c7 -3 16 -2 19 1 4 3 -2 6 -13 5 -11 0 -14 -3 -6 -6z"/>
<path d="M8260 2053 c0 -31 3 -53 7 -49 11 11 13 106 3 106 -6 0 -10 -25 -10
-57z"/>
<path d="M8295 2098 c-2 -7 -3 -31 -2 -53 2 -37 4 -40 32 -40 29 0 30 2 33 53
l3 52 -31 0 c-17 0 -33 -6 -35 -12z m45 -18 c0 -11 -7 -20 -15 -20 -8 0 -15 9
-15 20 0 11 7 20 15 20 8 0 15 -9 15 -20z m0 -45 c0 -8 -7 -15 -15 -15 -8 0
-15 7 -15 15 0 8 7 15 15 15 8 0 15 -7 15 -15z"/>
<path d="M2884 2058 l-19 -23 23 19 c12 11 22 21 22 23 0 8 -8 2 -26 -19z"/>
<path d="M8510 2069 c0 -5 5 -7 10 -4 6 3 10 8 10 11 0 2 -4 4 -10 4 -5 0 -10
-5 -10 -11z"/>
<path d="M8180 1895 c0 -10 -10 -15 -27 -15 -26 -1 -27 -1 -9 -15 12 -9 17
-22 13 -35 -6 -22 3 -26 21 -8 9 9 15 9 24 0 18 -18 27 -14 21 8 -4 13 1 26
13 35 18 14 17 14 -8 15 -18 0 -28 5 -28 15 0 8 -4 15 -10 15 -5 0 -10 -7 -10
-15z m30 -35 c0 -5 -7 -7 -15 -4 -8 4 -12 10 -9 15 6 11 24 2 24 -11z"/>
<path d="M7980 1840 l0 -30 80 0 c70 0 80 2 80 18 0 32 -22 42 -92 42 l-68 0
0 -30z"/>
<path d="M8255 1856 c-11 -8 -16 -19 -12 -30 5 -13 21 -16 82 -16 l75 0 0 30
0 30 -63 0 c-37 0 -71 -6 -82 -14z"/>
<path d="M3430 1737 c0 -10 -8 -17 -20 -17 -11 0 -20 -4 -20 -9 0 -5 9 -7 21
-4 21 6 36 29 25 40 -3 4 -6 -1 -6 -10z"/>
<path d="M2418 1703 c6 -2 18 -2 25 0 6 3 1 5 -13 5 -14 0 -19 -2 -12 -5z"/>
<path d="M4166 1581 c-3 -5 -26 -14 -51 -20 -46 -12 -45 -11 -60 -83 -4 -21 1
-22 77 -6 59 12 59 12 51 43 -4 16 -6 40 -6 53 1 23 -2 28 -11 13z"/>
<path d="M3904 1522 c-14 -9 -34 -68 -27 -76 4 -3 1 -6 -5 -6 -15 0 -16 -27
-1 -32 7 -2 41 3 78 12 70 17 71 19 58 78 -6 30 -9 32 -49 32 -24 0 -48 -4
-54 -8z"/>
<path d="M5020 1520 c0 -5 7 -10 15 -10 8 0 15 5 15 10 0 6 -7 10 -15 10 -8 0
-15 -4 -15 -10z"/>
<path d="M4841 1451 c-18 -11 -4 -59 17 -57 19 1 43 27 36 38 -10 16 -40 26
-53 19z"/>
<path d="M3505 1394 c-39 -18 -61 -27 -51 -19 28 22 6 18 -68 -9 -60 -23 -63
-23 -59 -5 6 23 -9 24 -40 5 -12 -8 -46 -24 -74 -35 -44 -17 -53 -18 -53 -6 0
20 -16 19 -24 -1 -10 -26 -8 -27 37 -20 23 4 49 7 57 7 144 -5 351 11 380 29
9 6 6 18 -12 48 l-24 40 -69 -34z m-100 -48 c-35 -15 -92 -30 -85 -22 8 8 83
34 100 34 8 1 2 -5 -15 -12z"/>
<path d="M8325 1400 c-3 -5 -1 -10 4 -10 6 0 11 5 11 10 0 6 -2 10 -4 10 -3 0
-8 -4 -11 -10z"/>
<path d="M8315 1370 c-3 -5 -1 -10 4 -10 6 0 11 5 11 10 0 6 -2 10 -4 10 -3 0
-8 -4 -11 -10z"/>
<path d="M3185 1219 c-89 -20 -126 -49 -62 -49 45 0 107 11 107 19 0 4 -17 6
-37 4 l-38 -2 38 10 c20 6 37 15 37 20 0 5 -1 9 -2 8 -2 -1 -21 -5 -43 -10z
m-38 -35 c-3 -3 -12 -4 -19 -1 -8 3 -5 6 6 6 11 1 17 -2 13 -5z"/>
<path d="M3584 1206 c-3 -7 -4 -35 -2 -62 3 -49 3 -49 38 -49 l35 0 3 63 c2
38 -1 62 -8 62 -5 0 -10 -11 -10 -25 0 -18 -5 -25 -20 -25 -25 0 -27 37 -2 43
12 4 11 5 -6 6 -12 0 -25 -5 -28 -13z m56 -76 c0 -13 -7 -20 -20 -20 -13 0
-20 7 -20 20 0 13 7 20 20 20 13 0 20 -7 20 -20z"/>
<path d="M3540 1151 c0 -34 4 -61 10 -61 6 0 10 24 10 54 0 30 -4 58 -10 61
-6 4 -10 -17 -10 -54z"/>
<path d="M8270 1200 c0 -5 5 -10 11 -10 5 0 7 5 4 10 -3 6 -8 10 -11 10 -2 0
-4 -4 -4 -10z"/>
<path d="M5140 1170 c-11 -7 -7 -10 18 -10 20 0 31 4 27 10 -8 13 -26 13 -45
0z"/>
<path d="M7275 1160 c11 -5 47 -8 80 -8 58 0 58 1 20 9 -55 11 -127 11 -100
-1z"/>
<path d="M8575 1157 c-2 -7 -5 -25 -7 -42 -3 -29 1 -32 112 -88 63 -32 122
-65 132 -74 31 -28 744 -46 908 -23 80 11 187 44 218 66 l23 16 -21 15 c-15
10 -24 12 -29 5 -9 -14 -100 -17 -134 -3 -33 13 -58 14 -56 4 5 -31 -3 -32
-236 -35 -226 -3 -234 -2 -237 17 -2 13 -20 25 -63 40 -137 49 -209 65 -385
85 -102 12 -193 23 -203 25 -10 2 -20 -2 -22 -8z m174 -94 c17 -10 31 -22 31
-27 0 -5 -6 -3 -14 3 -11 9 -19 9 -36 -1 -17 -11 -22 -11 -30 2 -26 40 -2 51
49 23z m156 -12 l-20 -8 20 -5 c11 -3 2 -6 -20 -6 -22 0 -31 3 -21 5 15 4 16
7 5 14 -10 6 -3 9 21 8 28 0 31 -2 15 -8z"/>
<path d="M7850 1088 c0 -4 7 -8 15 -8 8 0 15 4 15 8 0 5 -7 9 -15 9 -8 0 -15
-4 -15 -9z"/>
<path d="M9770 1090 c0 -6 7 -10 15 -10 8 0 15 2 15 4 0 2 -7 6 -15 10 -8 3
-15 1 -15 -4z"/>
<path d="M8518 1083 c7 -3 16 -2 19 1 4 3 -2 6 -13 5 -11 0 -14 -3 -6 -6z"/>
<path d="M5470 1073 c-197 -5 -1725 -33 -1900 -34 -103 -1 -156 -4 -128 -8 71
-10 69 -21 -3 -23 -71 -1 -77 -2 -100 -12 -9 -4 -39 -8 -67 -9 -27 -1 -48 -5
-46 -8 2 -4 -6 -7 -19 -7 -20 0 -135 -11 -162 -15 -5 -1 -14 -7 -20 -13 -16
-18 -233 -43 -480 -55 -207 -10 -281 -9 -465 6 l-55 5 50 -15 c81 -24 283 -63
390 -75 203 -22 470 -13 1005 35 392 35 452 38 461 24 5 -8 9 -35 9 -60 0 -26
3 -59 6 -75 l6 -29 351 22 c334 21 436 31 482 48 16 5 17 5 5 -4 -8 -6 -32
-16 -52 -21 -21 -6 -38 -15 -38 -20 0 -14 24 -12 38 2 6 6 15 8 19 4 4 -4 3
-10 -3 -14 -13 -8 -24 -72 -13 -72 4 0 5 -9 2 -20 -3 -13 0 -20 8 -20 10 0 13
12 11 47 -2 27 0 58 5 70 6 15 9 -5 9 -62 1 -66 -2 -85 -12 -85 -8 0 -14 -5
-14 -11 0 -5 5 -7 11 -3 8 4 9 -13 4 -59 -8 -74 -3 -92 24 -77 12 6 22 5 29
-2 8 -8 12 -8 12 -1 0 6 -7 16 -15 23 -12 10 -18 10 -31 -1 -15 -13 -16 -11
-10 21 4 19 10 58 14 85 5 34 12 50 22 51 32 3 34 6 13 14 -29 12 -30 46 -3
62 12 8 20 23 19 38 -1 21 -2 21 -6 5 -7 -27 -23 -43 -24 -25 0 8 -2 25 -5 38
-3 17 1 22 17 22 20 0 20 3 13 90 l-7 90 69 1 c38 0 77 2 86 4 10 2 20 -1 24
-6 7 -12 81 -12 89 1 8 13 72 13 80 0 6 -10 -69 -60 -192 -128 -46 -25 -85
-54 -89 -64 -3 -12 -12 -17 -20 -14 -8 3 -14 -1 -14 -10 0 -11 6 -14 23 -8 40
12 130 62 252 138 49 31 94 56 100 56 9 0 106 -42 403 -176 43 -20 52 -21 52
-8 0 8 -20 24 -47 36 -27 12 -136 61 -243 109 l-195 88 80 -5 c44 -2 109 -10
145 -16 36 -6 75 -10 88 -9 12 0 22 -4 22 -9 0 -7 6 -7 19 -1 10 6 21 8 23 5
3 -2 52 -7 109 -9 102 -5 202 -26 214 -45 3 -5 20 -7 36 -3 21 4 34 1 39 -8 5
-7 6 4 3 27 -4 34 -1 44 29 76 l34 37 36 -25 c42 -30 56 -31 161 -16 43 7 123
12 177 12 84 0 101 3 109 18 27 46 24 46 127 -9 54 -30 112 -59 128 -65 16 -6
32 -16 34 -23 3 -9 -46 -11 -216 -9 -121 2 -219 1 -216 -3 2 -4 -2 -9 -8 -12
-34 -12 89 -17 174 -8 54 6 137 11 185 11 82 1 89 2 106 25 16 22 16 25 2 25
-9 0 -18 7 -21 15 -4 8 -15 15 -25 15 -10 0 -19 5 -19 10 0 18 32 24 72 13 30
-8 38 -7 38 3 0 16 59 -12 67 -32 4 -10 25 -14 72 -15 36 -1 56 -4 44 -6 -13
-2 -23 -8 -23 -13 0 -5 10 -12 23 -16 21 -7 21 -7 2 -16 -19 -8 -19 -8 2 -4
12 2 24 -2 27 -9 2 -7 15 -11 29 -8 14 3 28 0 31 -6 4 -6 44 -12 94 -13 l87
-2 -90 -6 -90 -6 95 -2 c87 -2 130 -14 130 -36 0 -3 -56 -6 -125 -6 -117 0
-125 1 -125 19 0 11 5 21 10 23 6 2 -80 2 -190 1 -111 -1 -205 -5 -210 -8 -12
-7 -281 0 -305 9 -13 5 -12 2 4 -7 24 -14 24 -15 -16 -18 -22 -2 -112 -4 -199
-4 l-159 0 -6 40 -6 40 -2 -42 c-1 -42 -2 -43 -36 -43 -31 0 -35 3 -36 28 -1
19 -3 21 -6 7 -3 -19 -13 -20 -130 -22 -70 -1 -130 1 -133 6 -3 5 -14 5 -25 1
-14 -5 4 -13 65 -30 70 -19 116 -24 255 -28 162 -3 173 -5 248 -35 42 -17 77
-34 77 -38 0 -19 -180 -31 -377 -25 -231 6 -233 6 -233 18 0 15 -28 8 -34 -9
-18 -47 54 -58 367 -58 160 0 246 -4 244 -10 -2 -5 -50 -14 -108 -18 -141 -11
-225 -31 -276 -67 -24 -18 -55 -30 -75 -31 l-33 -1 30 -8 c17 -4 47 -15 67
-24 30 -13 87 -17 300 -20 145 -2 287 -6 316 -9 57 -5 113 -34 93 -47 -7 -4
11 -10 41 -13 88 -11 110 -23 140 -76 47 -85 150 -115 233 -68 101 57 122 190
43 274 l-21 23 64 0 c64 0 129 25 129 50 0 20 -55 32 -148 33 -80 2 -93 4 -98
20 -3 10 -4 20 -2 22 9 9 723 23 726 15 5 -13 42 -13 42 0 0 6 30 10 69 10 57
0 72 -4 83 -19 7 -10 30 -37 50 -59 l38 -42 47 11 48 11 -143 142 -143 141 38
8 c21 4 71 7 112 7 l75 -1 192 -115 c106 -64 201 -114 211 -112 11 2 19 14 21
31 3 25 6 27 51 27 112 0 510 41 576 59 39 11 88 24 110 30 l40 10 -3 55 c-3
50 -2 55 20 59 12 3 -98 4 -247 1 -148 -2 -442 -5 -652 -6 -209 -2 -379 -6
-376 -10 2 -5 -17 -7 -44 -7 -40 1 -43 2 -18 8 30 6 42 37 20 53 -5 4 6 8 25
8 19 0 42 5 50 10 31 19 -7 32 -102 34 -69 1 -96 5 -106 16 -12 13 -13 13 -8
-3 8 -25 -22 -34 -38 -11 -8 10 -12 24 -9 31 8 19 -41 26 -139 20 -71 -5 -93
-10 -103 -24 -12 -16 -9 -20 23 -36 30 -15 52 -17 117 -13 84 5 112 -2 102
-27 -6 -17 -42 -23 -148 -26 -71 -2 -78 0 -96 23 -14 17 -28 24 -44 21 -13 -2
-133 -6 -266 -10 -238 -6 -243 -6 -243 13 0 20 26 38 45 32 6 -1 57 -2 114 -1
97 1 133 7 103 18 -6 3 -10 9 -7 14 4 5 -1 6 -9 3 -9 -3 -13 -11 -10 -16 4 -6
-2 -8 -15 -4 -57 16 -66 18 -51 7 20 -14 -44 -14 -147 0 -84 11 -95 16 -75 28
7 4 -240 11 -550 15 -310 4 -612 8 -673 10 -60 1 -157 1 -215 -1z m1926 -140
l-29 -5 23 -11 c13 -7 25 -18 28 -24 3 -10 -29 -13 -132 -15 -75 -1 -146 -2
-158 -2 -18 -1 -24 5 -26 26 -3 25 0 27 40 31 59 5 290 5 254 0z m-3306 -90
c0 -5 -11 -8 -25 -8 -14 0 -25 3 -25 8 0 4 11 7 25 7 14 0 25 -3 25 -7z m377
-25 c-3 -7 -5 -2 -5 12 0 14 2 19 5 13 2 -7 2 -19 0 -25z m120 26 c-3 -3 -12
-4 -19 -1 -8 3 -5 6 6 6 11 1 17 -2 13 -5z m-242 -14 c3 -5 1 -10 -4 -10 -6 0
-11 5 -11 10 0 6 2 10 4 10 3 0 8 -4 11 -10z m288 -7 c-7 -2 -19 -2 -25 0 -7
3 -2 5 12 5 14 0 19 -2 13 -5z m-558 -13 c-27 -12 -35 -12 -35 0 0 6 12 10 28
9 24 0 25 -1 7 -9z m2838 -24 c4 -9 -1 -17 -11 -19 -14 -4 -13 -5 3 -6 11 0
43 -10 70 -21 47 -18 48 -19 18 -20 -18 0 -58 7 -90 16 -32 9 -78 20 -103 24
-56 10 -247 4 -320 -11 -30 -6 -71 -9 -90 -7 -35 3 -34 3 20 20 54 17 227 32
406 36 72 2 93 -1 97 -12z m37 -175 c0 -12 -7 -17 -22 -15 -13 1 -29 3 -35 3
-25 2 -13 30 15 33 35 5 42 1 42 -21z"/>
<path d="M5290 935 c14 -8 30 -14 35 -14 6 0 -1 6 -15 14 -14 8 -29 14 -35 14
-5 0 1 -6 15 -14z"/>
<path d="M6890 935 c7 -8 17 -15 22 -15 6 0 5 7 -2 15 -7 8 -17 15 -22 15 -6
0 -5 -7 2 -15z"/>
<path d="M5340 918 c3 -3 21 -13 40 -23 27 -13 32 -14 20 -2 -8 8 -26 18 -40
22 -14 4 -23 5 -20 3z"/>
<path d="M6965 910 c-3 -5 0 -7 8 -4 8 3 18 1 22 -5 9 -16 35 -13 35 4 0 17
-55 21 -65 5z"/>
<path d="M6923 903 c-22 -8 -14 -32 12 -39 14 -4 29 -4 32 0 4 3 -3 6 -14 6
-27 0 -35 10 -22 27 12 14 11 14 -8 6z"/>
<path d="M5711 884 c0 -11 3 -14 6 -6 3 7 2 16 -1 19 -3 4 -6 -2 -5 -13z"/>
<path d="M1813 883 c15 -2 37 -2 50 0 12 2 0 4 -28 4 -27 0 -38 -2 -22 -4z"/>
<path d="M7027 869 c7 -7 15 -10 18 -7 3 3 -2 9 -12 12 -14 6 -15 5 -6 -5z"/>
<path d="M5450 866 c0 -2 7 -6 15 -10 8 -3 15 -1 15 4 0 6 -7 10 -15 10 -8 0
-15 -2 -15 -4z"/>
<path d="M5758 863 c7 -3 16 -2 19 1 4 3 -2 6 -13 5 -11 0 -14 -3 -6 -6z"/>
<path d="M5808 853 c7 -3 16 -2 19 1 4 3 -2 6 -13 5 -11 0 -14 -3 -6 -6z"/>
<path d="M9448 838 c-4 -11 -1 -24 8 -33 19 -18 19 -18 33 -1 9 11 9 16 0 22
-8 4 -9 3 -5 -4 4 -7 1 -12 -8 -12 -8 0 -16 10 -18 23 -3 19 -4 19 -10 5z"/>
<path d="M5555 820 c3 -5 10 -10 16 -10 5 0 9 5 9 10 0 6 -7 10 -16 10 -8 0
-12 -4 -9 -10z"/>
<path d="M5656 781 c-3 -5 1 -12 10 -15 20 -8 29 -1 19 13 -8 13 -22 14 -29 2z"/>
<path d="M358 738 c-39 -14 -36 -31 3 -23 22 5 34 3 40 -6 8 -12 10 -12 18 0
17 27 80 -17 95 -65 6 -19 2 -22 -29 -26 l-35 -4 21 22 c26 27 18 43 -17 36
-16 -3 -30 1 -35 9 -8 12 -10 12 -18 0 -8 -12 -13 -12 -35 2 -29 20 -45 22
-28 5 17 -17 15 -33 -3 -18 -19 16 -19 1 0 -24 17 -23 20 -40 5 -31 -5 3 -10
2 -10 -4 0 -5 4 -11 10 -13 5 -1 7 -13 4 -25 -4 -13 -11 -20 -18 -16 -6 3 -2
-3 8 -15 l19 -22 22 20 22 21 1 -31 c0 -22 -4 -30 -16 -30 -25 0 -60 27 -77
60 -19 36 -19 40 0 40 8 0 15 5 15 10 0 6 -7 10 -15 10 -11 0 -12 5 -5 26 6
14 8 30 5 34 -3 5 2 13 11 18 13 7 12 11 -10 26 -27 17 -33 12 -17 -13 6 -10
4 -25 -6 -45 -46 -89 38 -207 138 -193 52 7 94 39 113 87 44 110 -64 219 -176
178z m162 -153 c0 -19 -66 -92 -75 -84 -3 4 11 23 30 42 20 20 34 41 30 47 -3
5 -1 10 4 10 6 0 11 -7 11 -15z m-96 -71 c3 -8 2 -12 -4 -9 -6 3 -10 10 -10
16 0 14 7 11 14 -7z"/>
<path d="M854 725 c-3 -14 -4 -32 0 -40 7 -19 46 -20 47 0 4 54 3 58 -19 61
-16 3 -23 -2 -28 -21z m31 -25 c2 -21 -10 -27 -20 -10 -8 13 3 45 12 36 4 -3
7 -15 8 -26z"/>
<path d="M944 719 c3 -17 6 -35 6 -40 0 -5 9 -9 20 -9 14 0 20 7 20 24 0 13 3
32 7 42 4 12 2 15 -8 12 -9 -3 -13 -16 -11 -36 2 -18 -1 -32 -7 -32 -6 0 -11
16 -11 35 0 19 -5 35 -11 35 -8 0 -9 -11 -5 -31z"/>
<path d="M1129 728 c-8 -15 -8 -27 0 -44 12 -28 23 -30 42 -8 12 15 11 16 -9
10 -18 -6 -22 -4 -22 13 0 11 5 23 10 26 6 3 10 1 10 -4 0 -6 5 -11 10 -11 19
0 10 28 -10 33 -14 3 -24 -1 -31 -15z"/>
<path d="M1306 728 c4 -13 8 -31 8 -40 0 -13 8 -18 26 -17 17 1 19 3 8 6 -10
2 -18 9 -18 14 0 6 5 7 10 4 6 -3 10 0 10 9 0 8 -6 17 -12 19 -7 3 -3 6 10 6
34 1 16 21 -19 21 -27 0 -30 -2 -23 -22z"/>
<path d="M587 734 c-13 -13 -7 -26 9 -20 13 5 15 1 12 -19 -3 -16 -1 -25 7
-25 8 0 10 9 7 25 -4 21 -1 24 13 19 13 -5 16 -3 13 7 -5 15 -49 24 -61 13z"/>
<path d="M676 722 c-13 -39 21 -75 44 -47 6 8 10 24 8 37 -4 30 -44 37 -52 10z
m39 -22 c0 -7 -6 -15 -12 -17 -8 -3 -13 4 -13 17 0 13 5 20 13 18 6 -3 12 -11
12 -18z"/>
<path d="M768 715 c4 -21 9 -24 26 -19 47 14 45 44 -3 44 -25 0 -28 -3 -23
-25z m42 11 c0 -3 -4 -8 -10 -11 -5 -3 -10 -1 -10 4 0 6 5 11 10 11 6 0 10 -2
10 -4z"/>
<path d="M1040 720 c6 -11 20 -20 31 -20 12 0 17 4 13 11 -3 6 0 15 7 20 10 6
8 9 -8 9 -17 0 -21 -4 -17 -17 5 -17 5 -17 -6 0 -16 24 -33 22 -20 -3z"/>
<path d="M1217 720 c3 -11 11 -20 18 -20 8 0 15 -8 17 -17 3 -10 6 -1 9 20 5
35 3 37 -22 37 -22 0 -26 -4 -22 -20z m33 0 c0 -5 -4 -10 -10 -10 -5 0 -10 5
-10 10 0 6 5 10 10 10 6 0 10 -4 10 -10z"/>
<path d="M1400 720 c6 -11 20 -20 31 -20 12 0 17 4 13 11 -3 6 0 15 7 20 10 6
8 9 -8 9 -17 0 -21 -4 -17 -17 5 -17 5 -17 -6 0 -16 24 -33 22 -20 -3z"/>
<path d="M1040 680 c0 -5 5 -10 11 -10 5 0 7 5 4 10 -3 6 -8 10 -11 10 -2 0
-4 -4 -4 -10z"/>
<path d="M1400 680 c0 -5 5 -10 11 -10 5 0 7 5 4 10 -3 6 -8 10 -11 10 -2 0
-4 -4 -4 -10z"/>
<path d="M4810 640 c0 -5 5 -10 10 -10 6 0 10 5 10 10 0 6 -4 10 -10 10 -5 0
-10 -4 -10 -10z"/>
<path d="M606 618 c-43 -61 13 -155 62 -106 19 19 14 33 -6 15 -30 -27 -35
-20 -30 48 4 69 -1 78 -26 43z"/>
<path d="M664 634 c-13 -5 -7 -44 6 -44 4 0 8 11 8 25 0 14 -1 25 -2 24 0 0
-6 -3 -12 -5z"/>
<path d="M730 607 c-12 -18 -16 -33 -10 -35 14 -5 40 17 40 34 0 19 19 18 26
-1 4 -8 10 -15 15 -15 18 0 -9 43 -29 47 -16 2 -28 -6 -42 -30z"/>
<path d="M860 620 c0 -5 8 -7 18 -4 16 5 16 5 0 -9 -24 -19 -23 -37 2 -37 11
0 20 4 20 10 0 5 -8 7 -17 4 -17 -5 -17 -5 0 9 23 19 22 37 -3 37 -11 0 -20
-4 -20 -10z"/>
<path d="M914 615 c-8 -21 3 -48 19 -43 19 7 22 58 2 58 -8 0 -18 -7 -21 -15z
m26 -17 c0 -16 -3 -19 -11 -11 -6 6 -8 16 -5 22 11 17 16 13 16 -11z"/>
<path d="M964 615 c-8 -21 2 -45 20 -45 7 0 16 7 20 15 8 21 -3 45 -20 45 -8
0 -17 -7 -20 -15z m26 -17 c0 -16 -3 -19 -11 -11 -6 6 -8 16 -5 22 11 17 16
13 16 -11z"/>
<path d="M1020 615 c0 -9 9 -15 23 -14 20 1 20 2 2 7 l-20 5 20 8 c19 7 19 8
-2 8 -14 1 -23 -5 -23 -14z"/>
<path d="M1116 608 c-8 -33 -8 -34 14 -34 13 0 19 5 15 14 -3 7 -5 20 -5 28 0
22 -17 16 -24 -8z"/>
<path d="M4855 620 c-3 -5 -1 -10 4 -10 6 0 11 5 11 10 0 6 -2 10 -4 10 -3 0
-8 -4 -11 -10z"/>
<path d="M1160 610 c0 -20 13 -40 27 -40 21 0 12 43 -9 46 -10 1 -18 -2 -18
-6z"/>
<path d="M1217 603 c-13 -13 -7 -43 9 -43 10 0 14 6 10 15 -3 8 -1 15 5 15 6
0 7 5 4 10 -7 12 -19 13 -28 3z"/>
<path d="M4716 584 c-4 -10 1 -22 10 -29 10 -6 15 -16 12 -21 -3 -5 -2 -29 2
-54 7 -38 8 -34 5 25 -2 39 -5 76 -6 83 -3 17 -16 15 -23 -4z"/>
<path d="M1015 579 c7 -11 35 -12 35 -1 0 4 -9 8 -20 9 -11 1 -18 -2 -15 -8z"/>
<path d="M735 560 c-22 -24 -14 -47 20 -56 30 -7 51 7 58 41 3 21 0 25 -19 25
-20 0 -24 -5 -24 -32 0 -40 -9 -33 -12 10 -1 18 -3 32 -4 32 0 0 -9 -9 -19
-20z"/>
<path d="M4713 535 c-3 -9 -3 -18 -1 -21 3 -3 8 4 11 16 6 23 -1 27 -10 5z"/>
<path d="M4688 493 c0 -4 -2 -28 -3 -53 -1 -35 4 -50 20 -66 18 -16 20 -25 13
-45 -15 -38 7 -96 45 -119 38 -24 86 -26 113 -5 18 14 18 14 -8 15 -22 0 -31
7 -43 37 -22 52 -15 61 47 60 29 0 43 -2 31 -4 -25 -5 -29 -26 -13 -69 9 -24
13 -25 24 -13 8 8 17 30 20 50 7 42 -21 93 -69 120 -27 16 -34 16 -70 4 -48
-17 -61 -9 -72 48 -7 36 -30 63 -35 40z m40 -86 c17 -19 11 -32 -13 -24 -9 4
-15 18 -14 39 0 18 3 26 6 18 3 -8 12 -23 21 -33z"/>
<path d="M5792 438 c-2 -48 -2 -48 -37 -48 -34 0 -35 1 -37 43 l-1 42 -7 -45
c-4 -25 -8 -40 -8 -34 -2 8 -47 11 -146 10 -80 0 -144 -1 -143 -2 1 -1 40 -13
87 -25 80 -22 101 -23 355 -21 149 2 284 7 300 12 17 5 73 11 126 15 52 4 102
11 110 16 14 9 -210 5 -430 -6 -145 -8 -159 -4 -164 48 l-4 42 -1 -47z"/>
<path d="M431 404 c0 -11 3 -14 6 -6 3 7 2 16 -1 19 -3 4 -6 -2 -5 -13z"/>
<path d="M532 385 c0 -16 2 -22 5 -12 2 9 2 23 0 30 -3 6 -5 -1 -5 -18z"/>
<path d="M1022 390 c0 -14 2 -19 5 -12 2 6 2 18 0 25 -3 6 -5 1 -5 -13z"/>
<path d="M1072 390 c0 -14 2 -19 5 -12 2 6 2 18 0 25 -3 6 -5 1 -5 -13z"/>
<path d="M1232 385 c0 -16 2 -22 5 -12 2 9 2 23 0 30 -3 6 -5 -1 -5 -18z"/>
<path d="M1432 385 c0 -16 2 -22 5 -12 2 9 2 23 0 30 -3 6 -5 -1 -5 -18z"/>
<path d="M1672 385 c0 -16 2 -22 5 -12 2 9 2 23 0 30 -3 6 -5 -1 -5 -18z"/>
<path d="M562 380 c0 -14 2 -19 5 -12 2 6 2 18 0 25 -3 6 -5 1 -5 -13z"/>
<path d="M1461 374 c0 -11 3 -14 6 -6 3 7 2 16 -1 19 -3 4 -6 -2 -5 -13z"/>
<path d="M1511 374 c0 -11 3 -14 6 -6 3 7 2 16 -1 19 -3 4 -6 -2 -5 -13z"/>
<path d="M1561 374 c0 -11 3 -14 6 -6 3 7 2 16 -1 19 -3 4 -6 -2 -5 -13z"/>
<path d="M315 370 c-3 -5 -1 -10 4 -10 6 0 11 5 11 10 0 6 -2 10 -4 10 -3 0
-8 -4 -11 -10z"/>
<path d="M6253 359 c-169 -15 -174 -29 -8 -24 83 3 195 5 250 5 77 0 96 3 81
11 -24 14 -203 18 -323 8z"/>
<path d="M752 275 c0 -16 2 -22 5 -12 2 9 2 23 0 30 -3 6 -5 -1 -5 -18z"/>
<path d="M1072 275 c0 -16 2 -22 5 -12 2 9 2 23 0 30 -3 6 -5 -1 -5 -18z"/>
<path d="M1182 280 c0 -14 2 -19 5 -12 2 6 2 18 0 25 -3 6 -5 1 -5 -13z"/>
<path d="M431 264 c0 -11 3 -14 6 -6 3 7 2 16 -1 19 -3 4 -6 -2 -5 -13z"/>
<path d="M1101 264 c0 -11 3 -14 6 -6 3 7 2 16 -1 19 -3 4 -6 -2 -5 -13z"/>
</g>
</svg>
